      <svg width="21" height="21" viewBox="0 0 21 21" fill="none" xmlns="http://www.w3.org/2000/svg">
        <path d="M0.5 0.5C0.5 0.5 0.500004 20.5 10.5 20.5C20.5 20.5 20.5 0.5 20.5 0.5" stroke="currentColor" />
        <path d="M0.5 0.5C0.5 0.5 0.500004 20.5 10.5 20.5C20.5 20.5 20.5 0.5 20.5 0.5" stroke="currentColor" />
        <path d="M0.5 0.5L10.5 19.5L20.5 0.5" stroke="currentColor" />
        <path d="M10.5 0.5V19" stroke="currentColor" />
        <path
          d="M2.34714 9.72673C2.33411 9.72649 2.34804 9.72617 2.36716 9.72592C2.37309 9.72585 2.39959 9.72589 2.40488 9.72583C2.41519 9.72573 2.40219 9.72563 2.41446 9.72553C2.41866 9.7255 2.46064 9.72554 2.46408 9.72551C2.48264 9.72531 2.47194 9.72513 2.48087 9.72493C2.5249 9.72397 2.54066 9.72302 2.55979 9.72204C2.56606 9.72172 2.60416 9.72133 2.5875 9.72099C2.58551 9.72095 2.54866 9.72098 2.54563 9.72097C2.49913 9.72085 2.57352 9.72089 2.58341 9.72082C2.62243 9.72052 2.62583 9.72018 2.61161 9.71989C2.60545 9.71977 2.53225 9.71989 2.57334 9.71977C2.57611 9.71976 2.61524 9.71979 2.61942 9.71976C2.62881 9.71968 2.62181 9.71954 2.62491 9.71948C2.63108 9.71936 2.63069 9.71934 2.63114 9.71923C2.63209 9.71909 2.65154 9.71891 2.64267 9.71875C2.64066 9.71872 2.60055 9.71876 2.59372 9.71871C2.58691 9.71866 2.59031 9.71851 2.59976 9.71846C2.60923 9.71842 2.64076 9.71844 2.64798 9.71843C2.70898 9.71836 2.6245 9.71819 2.62241 9.71817C2.58681 9.71778 2.63494 9.71745 2.6348 9.71709C2.63459 9.71681 2.6187 9.71651 2.62088 9.71625C2.62363 9.71594 2.64537 9.71567 2.64163 9.71537C2.64129 9.71534 2.59412 9.71537 2.5936 9.71533C2.58811 9.71492 2.59325 9.7145 2.62509 9.71409C2.62833 9.71405 2.66974 9.7141 2.67545 9.71406C2.70948 9.7138 2.79123 9.7134 2.61093 9.71325C2.61797 9.71308 2.62525 9.71287 2.66159 9.71271C2.68499 9.71261 2.7301 9.71271 2.71085 9.71259C2.70656 9.71256 2.66705 9.7126 2.66361 9.71255C2.64914 9.71238 2.66199 9.71219 2.64157 9.71202C2.63733 9.71198 2.60193 9.71199 2.59555 9.71198C2.54393 9.7119 2.62927 9.71176 2.63547 9.71173C2.68171 9.7115 2.66352 9.71133 2.66465 9.71112C2.66493 9.71107 2.61738 9.71113 2.61594 9.71108C2.60912 9.71083 2.61321 9.71057 2.63431 9.71033C2.63912 9.71027 2.67962 9.71032 2.68399 9.7103C2.70277 9.71018 2.62626 9.71016 2.64279 9.71005C2.64618 9.71003 2.68086 9.71004 2.68466 9.71003C2.74445 9.70997 2.65974 9.70991 2.65787 9.70989C2.63232 9.70968 2.72075 9.70954 2.70822 9.70934C2.70664 9.70931 2.66276 9.70937 2.66098 9.7093C2.64887 9.70883 2.66092 9.70834 2.69602 9.70788C2.70141 9.70781 2.73437 9.70786 2.73844 9.70786C2.80192 9.70779 2.71686 9.70774 2.71366 9.70772C2.6906 9.70753 2.76193 9.70736 2.66062 9.70724C2.69578 9.70646 2.63888 9.70568 2.72965 9.70491C2.7307 9.7049 2.77259 9.70492 2.77451 9.7049C2.79803 9.70466 2.73292 9.70471 2.65329 9.70455C2.6333 9.70451 2.72944 9.7044 2.73648 9.70438C2.76245 9.70435 2.82478 9.70439 2.82981 9.70437C2.8693 9.70427 2.66319 9.70428 2.66312 9.70414C2.66346 9.70414 2.7014 9.70415 2.70517 9.70414C2.71701 9.7041 2.70194 9.70407 2.715 9.70403C2.74522 9.70395 2.84537 9.70392 2.78708 9.70379C2.77952 9.70377 2.6626 9.7038 2.66812 9.70367C2.67043 9.70362 2.66842 9.70339 2.676 9.70333C2.68357 9.70326 2.72124 9.70331 2.72287 9.7033C2.77269 9.70313 2.79334 9.7032 2.8671 9.70311C2.94058 9.70303 2.76532 9.70305 2.74576 9.70301C2.72625 9.70298 2.76736 9.70285 2.78165 9.70282C2.79594 9.70279 2.81989 9.70283 2.82797 9.7028C2.88083 9.70262 2.74098 9.70272 2.71317 9.70266C2.6473 9.70252 2.77728 9.70241 2.79001 9.70228C2.79345 9.70225 2.76385 9.70228 2.76108 9.70225C2.75051 9.70212 2.79106 9.70205 2.75388 9.70191C2.74782 9.70189 2.66968 9.70177 2.72702 9.7017C2.73529 9.70169 2.76768 9.70172 2.77494 9.70167C2.78582 9.70159 2.7929 9.70145 2.78208 9.70136C2.77407 9.7013 2.7207 9.70137 2.73728 9.70129C2.74468 9.70126 2.7759 9.70132 2.7872 9.70126C2.7985 9.70119 2.79713 9.70102 2.79605 9.70096C2.79495 9.7009 2.75447 9.70093 2.75174 9.70093C2.73612 9.7009 2.7166 9.70077 2.71665 9.70076C2.7117 9.70022 2.77994 9.69972 2.75736 9.6992C2.75564 9.69916 2.71295 9.69918 2.71225 9.69918C2.69437 9.69904 2.80787 9.69915 2.84586 9.69905C2.75923 9.69906 2.77491 9.69901 2.76541 9.69891C2.76077 9.69886 2.72722 9.69888 2.72379 9.69888C2.67284 9.69881 2.73865 9.69876 2.75211 9.69875C2.80163 9.6987 2.74312 9.69865 2.77622 9.69862C2.80907 9.69858 2.85777 9.69866 2.85715 9.69856C2.82614 9.69853 2.7451 9.69861 2.73197 9.69853C2.68229 9.69826 2.74587 9.69775 2.75247 9.69753C2.75907 9.69731 2.75335 9.69724 2.76456 9.69711C2.78482 9.69688 2.7247 9.69696 2.69718 9.69682C2.66966 9.69668 2.8176 9.69675 2.8494 9.69672C2.88119 9.6967 2.84846 9.69668 2.86594 9.69666C2.88341 9.69663 2.90503 9.69669 2.91159 9.69663C2.91815 9.69657 2.86159 9.69641 2.82834 9.69638C2.75789 9.69634 2.68395 9.69641 2.70993 9.69626C2.71147 9.69625 2.75037 9.69628 2.75431 9.69624C2.78425 9.69597 2.78611 9.69568 2.81259 9.69541C2.8163 9.69537 2.85957 9.6954 2.86222 9.69538C2.88989 9.69515 2.81693 9.69524 2.73587 9.69511C2.84374 9.69514 2.90973 9.69507 2.91037 9.6949C2.91079 9.69479 2.86368 9.69481 2.83048 9.69474C2.82047 9.69472 2.85282 9.69465 2.83066 9.69463C2.75824 9.69459 2.67716 9.69466 2.70944 9.69448C2.71098 9.69447 2.75062 9.6945 2.75302 9.69447C2.76874 9.6943 2.69298 9.69428 2.68381 9.69409C2.67661 9.69394 2.72281 9.69367 2.73032 9.6935C2.85159 9.69351 2.82382 9.69335 2.74021 9.69328C2.74363 9.69317 2.7389 9.69306 2.75046 9.69295C2.7544 9.69291 2.78951 9.69294 2.79331 9.69293C2.85282 9.69286 2.77147 9.69281 2.76828 9.69279C2.73728 9.69253 2.79894 9.69233 2.73868 9.69208C2.73651 9.69207 2.65227 9.69206 2.71378 9.69199C2.71802 9.69199 2.75635 9.69207 2.75931 9.69195C2.76228 9.69184 2.80744 9.69162 2.7684 9.69146C2.75901 9.69142 2.69062 9.69132 2.74405 9.69125C2.75131 9.69124 2.77547 9.69125 2.78891 9.69123C2.83175 9.69118 2.7466 9.69116 2.81894 9.6911C2.89127 9.69104 2.94545 9.69092 2.89554 9.69076C2.89409 9.69076 2.8266 9.69072 2.82767 9.69067C2.82943 9.69059 2.84349 9.69047 2.84305 9.69039C2.84282 9.69035 2.80091 9.69037 2.80014 9.69037C2.77666 9.69009 2.81402 9.6899 2.83023 9.68961C2.83329 9.68955 2.77614 9.6894 2.82132 9.6893C2.87078 9.68918 3.07651 9.6893 3.0275 9.68904C3.00789 9.68893 2.74688 9.6888 2.88211 9.68861C2.8486 9.68824 2.91781 9.6879 2.86997 9.68754C2.86785 9.68752 2.795 9.68747 2.79599 9.68743C2.79761 9.68737 2.83165 9.68734 2.8339 9.6873C2.84415 9.68713 2.81502 9.68697 2.81955 9.6868C2.8212 9.68674 2.8564 9.68676 2.85837 9.68668C2.8603 9.68661 2.81395 9.68656 2.83634 9.68646C2.8534 9.68638 2.94816 9.6863 2.9592 9.6862C2.86574 9.68619 2.86766 9.68612 2.84299 9.686C2.8382 9.68598 2.80567 9.686 2.80173 9.68599C2.78496 9.68594 2.81192 9.6859 2.79367 9.68586C2.78929 9.68585 2.75737 9.68585 2.75199 9.68584C2.70498 9.68576 2.77678 9.68564 2.78928 9.68562C2.83675 9.68554 2.79524 9.6855 2.81394 9.68544C2.83263 9.68538 2.856 9.68547 2.86734 9.6854C2.89081 9.68525 2.88565 9.68506 2.88712 9.6849C2.88751 9.68484 2.8449 9.68488 2.84397 9.68488C2.83316 9.68475 2.87848 9.68462 2.79361 9.68455C3.01305 9.68447 2.77233 9.68448 2.81626 9.6843C2.81981 9.68429 2.92358 9.68427 2.93881 9.68432C2.95403 9.68438 2.9216 9.68446 2.94534 9.68453C2.95092 9.68455 3.04816 9.68465 3.05405 9.68467C3.10008 9.68478 2.94501 9.68479 2.93649 9.6848C2.84458 9.68486 2.94934 9.68499 2.95658 9.68502C2.98974 9.68517 2.96793 9.6853 2.99161 9.68542C3.00691 9.6855 3.10849 9.68551 3.10538 9.68558C3.0951 9.68579 2.9534 9.68587 3.07626 9.68607C3.10247 9.68611 3.21349 9.68607 3.12619 9.68622C3.12069 9.68623 3.04083 9.68635 3.09134 9.68641C3.09771 9.68642 3.13007 9.68642 3.13278 9.68643C3.15036 9.68651 3.12459 9.68656 3.13693 9.68664C3.14928 9.68672 3.16768 9.68681 3.15671 9.68691C3.15015 9.68696 3.08986 9.68703 3.07511 9.68706C3.03259 9.68713 3.1023 9.68721 3.05081 9.68726C2.99907 9.68731 2.92049 9.68722 2.88706 9.68734C2.97112 9.68734 3.0574 9.68735 3.14194 9.68736C3.13898 9.68763 3.1118 9.68789 3.11551 9.68816C3.11605 9.6882 3.16125 9.68816 3.163 9.6882C3.17017 9.68835 3.13796 9.68848 3.15079 9.68864C3.16089 9.68876 3.20874 9.68889 3.2208 9.68902C3.12461 9.6891 3.15726 9.68928 3.14847 9.68942C3.14543 9.68947 3.11974 9.68947 3.11136 9.6895C3.08036 9.68963 3.16537 9.68957 3.17874 9.6896C3.23583 9.68975 3.04343 9.68977 3.04819 9.68995C3.04838 9.68996 3.15093 9.69007 3.15732 9.69009C3.19896 9.69019 3.12162 9.6901 3.11405 9.69017C3.1002 9.69028 3.07571 9.69036 3.10574 9.6905C3.11464 9.69054 3.17857 9.69063 3.12912 9.69071C3.12265 9.69072 3.08875 9.69071 3.08676 9.69072C3.05367 9.69087 3.16019 9.69087 3.19626 9.69096C3.23233 9.69104 3.1588 9.69117 3.1376 9.6912C3.08278 9.69126 3.11418 9.69114 3.1088 9.69114C3.04477 9.6911 3.0558 9.69119 3.05039 9.69126C2.94595 9.69127 2.95222 9.69137 3.0452 9.69134C3.05535 9.69133 3.04561 9.69128 3.05039 9.69126C3.15285 9.69133 3.16598 9.69144 3.07022 9.69156C3.02534 9.69162 2.97302 9.69156 2.99216 9.69174C3.0008 9.69182 3.07271 9.69179 3.09232 9.69186C3.13705 9.69202 3.06997 9.69222 3.08054 9.69239C3.08437 9.69245 3.12374 9.69239 3.12772 9.69243C3.1384 9.69254 3.10886 9.69263 3.12399 9.69274C3.12541 9.69275 3.16662 9.69273 3.16715 9.69276C3.17193 9.69302 3.14554 9.69324 3.14481 9.69351C3.14447 9.69364 3.1672 9.69387 3.16263 9.694C3.15495 9.69424 3.09503 9.69452 3.10959 9.69472C3.11891 9.69485 3.16012 9.69482 3.1882 9.69488C3.24264 9.69498 3.14513 9.69517 3.13004 9.6952C3.12954 9.6952 3.11982 9.69509 3.09866 9.69515C3.05458 9.69518 3.12985 9.6952 3.13004 9.6952C3.12028 9.69522 3.11093 9.69544 3.11881 9.69548C3.12311 9.69551 3.16216 9.69549 3.16367 9.69551C3.19861 9.6958 3.20854 9.6961 3.19028 9.6964C3.18949 9.69641 3.14581 9.6964 3.1445 9.69641C3.12508 9.69659 3.17851 9.6967 3.21024 9.69684C3.24195 9.69699 3.23133 9.6971 3.15634 9.69719C3.16578 9.6973 3.13263 9.69745 3.11252 9.69754C3.09241 9.69763 3.17743 9.69764 3.17911 9.69765C3.23291 9.6979 3.18424 9.69804 3.17667 9.6983C3.17292 9.69842 3.18525 9.69866 3.19455 9.69879C3.20204 9.69889 3.18212 9.69896 3.19486 9.69905C3.19656 9.69906 3.23441 9.69905 3.23587 9.69906C3.28116 9.69916 3.18862 9.69911 3.17209 9.69913C3.11198 9.69921 3.07997 9.69926 3.10825 9.6994C3.11472 9.69943 3.24798 9.69952 3.25577 9.69958C3.26566 9.69966 3.21789 9.69963 3.22946 9.69971C3.23041 9.69971 3.25988 9.69971 3.25858 9.69976C3.25293 9.69998 3.23579 9.70023 3.23874 9.70046C3.23903 9.70049 3.28577 9.70045 3.28696 9.7005C3.2925 9.70071 3.29077 9.70095 3.26889 9.70116C3.26336 9.70121 3.23063 9.70118 3.22092 9.70119C3.16213 9.70126 3.24755 9.70136 3.24918 9.70138C3.29023 9.70176 3.21292 9.70206 3.24973 9.70245C3.25189 9.70247 3.34346 9.70263 3.26492 9.70271C3.2597 9.70271 3.17934 9.70279 3.23428 9.70285C3.23772 9.70285 3.27909 9.70281 3.27487 9.70289C3.27067 9.70297 3.29829 9.70309 3.25284 9.7032C3.23852 9.70324 3.15837 9.70332 3.22226 9.70342C3.22672 9.70343 3.3712 9.70359 3.27152 9.70364C3.25511 9.70365 3.14962 9.70364 3.20371 9.70376C3.21419 9.70379 3.23772 9.70374 3.25241 9.70381C3.27506 9.7039 3.2468 9.70403 3.29379 9.70414C3.30211 9.70416 3.37371 9.70425 3.31937 9.70432C3.31086 9.70433 3.27564 9.70431 3.2717 9.70434C3.25279 9.70452 3.27635 9.7047 3.25198 9.70488C3.24342 9.70494 3.18649 9.70491 3.17124 9.70497C3.15598 9.70504 3.14131 9.70517 3.16733 9.70523C3.19336 9.7053 3.28409 9.70523 3.29135 9.70533C3.32289 9.70577 3.26966 9.70621 3.26187 9.70666C3.26071 9.70672 3.29318 9.70667 3.29379 9.70676C3.29621 9.70712 3.32665 9.70774 3.25766 9.70805C3.2024 9.70829 3.16034 9.70798 3.13785 9.70817C3.12712 9.70826 3.23261 9.70836 3.23593 9.70838C3.26967 9.7086 3.22294 9.70875 3.23728 9.70894C3.24025 9.70898 3.28301 9.70894 3.28507 9.70898C3.29248 9.7091 3.2734 9.70922 3.27689 9.70933C3.27855 9.70938 3.31121 9.70937 3.30869 9.70942C3.30303 9.70953 3.2893 9.70962 3.2587 9.70973C3.25591 9.70974 3.21529 9.70967 3.21378 9.70976C3.21145 9.70989 3.18125 9.71005 3.21243 9.7102C3.22181 9.71025 3.29645 9.71025 3.2449 9.71035C3.23414 9.71037 3.14452 9.71034 3.22196 9.71045C3.23482 9.71047 3.33927 9.71066 3.27194 9.71075C3.25422 9.71078 3.18089 9.71084 3.19241 9.71089C3.19425 9.7109 3.23434 9.71087 3.23825 9.71092C3.25133 9.71108 3.24706 9.71124 3.25961 9.7114C3.26305 9.71145 3.30453 9.71138 3.30832 9.71145C3.3188 9.71162 3.30824 9.71185 3.29526 9.71202C3.29039 9.71208 3.25603 9.71204 3.25229 9.71204C3.19146 9.71212 3.27356 9.71216 3.27835 9.71219C3.30702 9.71234 3.26845 9.71246 3.27866 9.7126C3.28137 9.71264 3.32052 9.71261 3.32401 9.71262C3.35811 9.7127 3.28781 9.71264 3.28006 9.71269C3.25812 9.71284 3.26126 9.713 3.26627 9.71314C3.26816 9.7132 3.31355 9.71314 3.31473 9.71319C3.32255 9.71347 3.31821 9.71376 3.29318 9.71404C3.28839 9.71409 3.25344 9.71406 3.24545 9.71407C3.1896 9.71415 3.26578 9.71426 3.27304 9.71428C3.30618 9.7144 3.27527 9.71444 3.28104 9.71454C3.30976 9.71504 3.28929 9.71565 3.27664 9.71612C3.26037 9.71673 3.22711 9.7172 3.23575 9.71779C3.23625 9.71782 3.28275 9.71779 3.28378 9.71782C3.29499 9.71823 3.27682 9.71863 3.29025 9.71905C3.29127 9.71908 3.33535 9.71903 3.33847 9.71909C3.34518 9.7192 3.34278 9.71934 3.32871 9.71945C3.32192 9.71951 3.2841 9.71943 3.27805 9.71949C3.26387 9.71962 3.26073 9.71975 3.26779 9.71989C3.2709 9.71994 3.31598 9.71986 3.3165 9.71993C3.32097 9.72043 3.32874 9.72092 3.27036 9.72142C3.26635 9.72146 3.17472 9.72149 3.19229 9.72156C3.21772 9.72157 3.24763 9.72157 3.27481 9.72157C3.28945 9.72229 3.25769 9.72301 3.25278 9.72374C3.25258 9.72377 3.30113 9.72372 3.301 9.72378C3.30028 9.72412 3.31373 9.72445 3.26547 9.72481C3.26075 9.72484 3.17535 9.72482 3.18826 9.72493C3.19062 9.72494 3.20201 9.7251 3.22055 9.72514C3.22335 9.72514 3.26321 9.72512 3.26437 9.72517C3.27043 9.72546 3.26133 9.72576 3.23697 9.72605C3.23296 9.7261 3.19051 9.72605 3.18729 9.72608C3.16475 9.72631 3.19702 9.72657 3.15848 9.7268C3.13253 9.72695 3.05914 9.72689 2.98691 9.72697C2.97672 9.72698 2.9751 9.72708 2.93308 9.72708C2.8274 9.72709 2.71168 9.72705 2.59903 9.72707C2.57477 9.72707 2.6009 9.7272 2.54227 9.72712C2.53835 9.72712 2.51889 9.72703 2.499 9.727C2.48524 9.72699 2.4425 9.72702 2.4249 9.72698C2.40731 9.72695 2.44314 9.72692 2.42246 9.72687C2.40152 9.72681 2.3529 9.72684 2.34714 9.72673ZM3.02262 9.69795C2.98178 9.69803 3.13133 9.69804 3.09555 9.69795C3.09364 9.69795 3.02462 9.69794 3.02262 9.69795ZM2.99899 9.68789C2.93303 9.688 3.03002 9.68808 3.08096 9.688C3.13185 9.68792 3.01899 9.68786 2.99899 9.68789ZM2.95084 9.68677C2.89883 9.68689 3.11089 9.68691 3.06803 9.68678C3.0656 9.68677 2.95386 9.68676 2.95084 9.68677ZM2.96634 9.7266C2.96435 9.7266 2.96242 9.72667 2.96439 9.72667C3.01188 9.72671 3.01572 9.72657 2.96634 9.7266ZM2.89841 9.68565C2.86972 9.68569 2.90284 9.6858 2.93851 9.68575C2.96721 9.68571 2.93409 9.6856 2.89841 9.68565ZM2.86301 9.70228C2.86078 9.70228 2.85877 9.70233 2.87137 9.70233C2.91194 9.70232 2.90049 9.70226 2.86301 9.70228ZM2.89597 9.68375C2.88799 9.68403 2.71281 9.6842 2.73258 9.68389C2.73615 9.68384 2.78844 9.68401 2.80423 9.68394C2.833 9.68381 2.72302 9.68373 2.78195 9.6836C2.79274 9.68357 2.89681 9.68373 2.89621 9.68375C2.89613 9.68375 2.89605 9.68375 2.89597 9.68375ZM2.84299 9.69799C2.84101 9.69799 2.83914 9.69806 2.8411 9.69806C2.88857 9.6981 2.89238 9.69796 2.84299 9.69799ZM2.77054 9.70509C2.76633 9.70509 2.76239 9.70525 2.76627 9.70525C2.84391 9.70533 2.8521 9.70502 2.77054 9.70509ZM2.73355 9.6935C2.68579 9.69343 2.68017 9.69334 2.74015 9.69328C2.73696 9.69336 2.73649 9.69343 2.73355 9.6935Z"
          fill="currentColor" />
        <path
          d="M3.27758 11.3386C3.84246 11.9893 4.42127 12.917 4.68542 13.204C4.80457 13.3335 4.45437 12.8351 3.96919 12.0316C3.66654 11.5303 3.53889 11.2681 3.45985 10.8328C3.23202 9.57817 2.61035 8.71328 2.50844 8.38532C2.43606 8.15241 2.20531 7.39624 1.98602 6.88994C1.85723 6.59259 1.84034 6.20115 1.78982 5.93178C1.73809 5.65597 1.62344 5.28742 1.56465 4.58317C1.53841 4.26885 1.59383 4.00871 1.55746 3.76133C1.43399 3.52876 1.39044 3.35455 1.33992 3.23151C1.30377 3.16596 1.24628 3.0941 1.14349 2.8894"
          stroke="currentColor" stroke-linecap="round" />
        <path
          d="M2.77217 6.23949C2.80317 6.29358 2.83571 6.34972 2.86993 6.408C2.91145 6.47872 2.85799 6.41351 2.77822 6.31505C2.77996 6.33927 2.7815 6.36344 2.78283 6.38753C2.60861 6.256 2.42821 5.96217 2.48688 5.98902C2.53169 6.00954 2.67639 6.18937 2.77822 6.31505C2.77641 6.28991 2.77439 6.26471 2.77217 6.23949Z"
          fill="currentColor" />
        <path
          d="M2.18877 5.15412C2.33336 5.41456 2.50757 5.79086 2.86993 6.408C2.96445 6.56898 2.5668 6.02561 2.48688 5.98902C2.42821 5.96217 2.60861 6.256 2.78283 6.38753C2.74145 5.63712 2.49407 4.80613 2.40718 4.71206C2.36341 4.6611 2.32029 4.60361 2.23232 4.45728"
          stroke="currentColor" stroke-linecap="round" />
        <path
          d="M3.71578 8.2136C3.6873 7.94573 3.65866 7.67922 3.70838 7.65088C3.69876 7.47563 3.70292 7.38333 3.72813 7.42634C3.81004 7.5661 4.048 7.91566 4.07701 8.12584C4.08895 8.21237 4.06549 8.27527 3.98117 8.29021C3.92951 8.29936 3.84313 8.29027 3.75789 8.24132C3.78588 8.52215 3.82164 8.84243 3.8577 9.14819C3.88828 9.40753 3.81589 9.30825 3.70722 9.14863C3.53355 8.89352 3.37382 8.68618 3.25248 8.57911C3.30741 8.73226 3.35262 8.85804 3.37143 8.91279C3.40071 8.99801 3.26031 8.79434 3.06508 8.50356C2.4726 8.5762 2.8416 9.52447 2.82049 9.57458C2.70043 9.85956 2.42866 9.36401 2.25501 9.01319C2.27246 9.17159 2.25789 9.26758 2.23209 9.29823C2.20313 9.17454 1.93282 8.5957 2.10187 8.71093C2.11569 8.72034 2.17491 8.85137 2.25501 9.01319C2.42866 9.36401 2.70043 9.85956 2.82049 9.57458C2.8416 9.52447 2.4726 8.5762 3.06508 8.50356C2.9553 8.34005 2.82818 8.149 2.70414 7.96628C2.67522 8.24944 2.62484 8.45865 2.47098 8.42086C2.34772 8.39059 2.23802 7.94662 2.29067 7.49058C2.30548 7.36232 2.33422 7.43418 2.38561 7.51453C2.43701 7.59489 2.50852 7.68136 2.58922 7.79828C2.62681 7.85273 2.66533 7.9091 2.70414 7.96628C2.7345 7.66911 2.74124 7.29049 2.81918 7.03044C2.87737 6.8363 2.92828 6.78132 3.02236 6.93136C3.32096 7.40761 3.4801 7.92589 3.62491 8.12166C3.65284 8.15942 3.68379 8.18967 3.71578 8.2136Z"
          fill="currentColor" />
        <path
          d="M3.45179 6.98341C3.91475 7.64846 4.29322 8.43284 4.40254 8.60945C4.64327 8.99836 3.859 7.76866 3.75012 7.6661C3.59231 7.51743 3.75622 8.3453 3.74969 8.66563C3.73832 9.22312 3.06155 7.90063 2.97967 7.71618C2.73548 7.16611 3.29151 8.68022 3.37143 8.91279C3.42233 9.06092 2.96051 8.33615 2.58922 7.79828C2.50852 7.68136 2.43701 7.59489 2.38561 7.51453C2.33422 7.43418 2.30548 7.36232 2.29067 7.49058C2.23802 7.94662 2.34772 8.39059 2.47098 8.42086C2.78632 8.49831 2.66697 7.53827 2.81918 7.03044C2.87737 6.8363 2.92828 6.78132 3.02236 6.93136C3.32096 7.40761 3.4801 7.92589 3.62491 8.12166C3.73825 8.27488 3.90125 8.30436 3.98117 8.29021C4.27034 8.23899 3.84376 7.62363 3.72813 7.42634C3.65615 7.30353 3.75578 8.28389 3.8577 9.14819C3.88828 9.40753 3.81589 9.30825 3.70722 9.14863C3.44815 8.76807 3.22009 8.49382 3.10423 8.50013C2.45671 8.53543 2.84205 9.5234 2.82049 9.57458C2.64505 9.99101 2.14564 8.74076 2.10187 8.71093C1.93282 8.5957 2.20313 9.17454 2.23209 9.29823C2.26105 9.26383 2.27586 9.14711 2.24712 8.95221C2.21837 8.8148 2.16088 8.59921 2.10165 8.37709"
          stroke="currentColor" stroke-linecap="round" />
        <path
          d="M2.05004 8.60854C2.05105 8.61395 2.0515 8.61764 2.05136 8.61945C2.04866 8.65239 2.03584 8.59566 2.02335 8.52449C2.02006 8.50577 2.01679 8.48605 2.01374 8.4667C2.00227 8.39401 1.9938 8.32653 1.9984 8.33687C2.30735 9.03118 2.38543 9.76001 2.34475 9.69883C2.28921 9.5038 2.16279 8.97582 2.05305 8.61832C2.05204 8.61504 2.05104 8.61179 2.05004 8.60854Z"
          fill="currentColor" />
        <path
          d="M2.21281 8.65719C2.09361 8.36718 1.86759 7.71887 1.83368 7.65104C1.67403 7.33173 2.05508 8.57404 2.05136 8.61945C2.04528 8.69361 1.98792 8.31332 1.9984 8.33687C2.30735 9.03118 2.38543 9.76001 2.34475 9.69883C2.28921 9.5038 2.16279 8.97582 2.05305 8.61832C1.94331 8.26081 1.85407 8.08978 1.76213 7.91356"
          stroke="currentColor" stroke-linecap="round" />
        <path
          d="M3.13289 11.823C3.13072 11.8206 3.12739 11.8076 3.08795 11.6796C3.07384 11.6143 3.06084 11.5536 3.04963 11.5004C2.97898 11.1652 2.98438 11.1239 2.98664 11.1324C3.03171 11.3027 3.24111 11.9439 3.13289 11.823Z"
          fill="currentColor" />
        <path
          d="M1.89734 8.38674C1.91221 8.39418 1.92708 8.40161 1.93846 8.39057C1.9707 8.35929 1.95751 8.27452 1.94624 8.18833C1.94083 8.14693 1.94241 8.10957 2.13575 8.69647C2.32909 9.28338 2.71578 10.4955 2.9187 11.1385C3.12162 11.7815 3.12906 11.8187 3.13289 11.823C3.24111 11.9439 3.03171 11.3027 2.98664 11.1324C2.98438 11.1239 2.97898 11.1652 3.04963 11.5004C3.12027 11.8356 3.26156 12.4677 3.30832 12.6818C3.31055 12.692 3.09323 12.1008 2.97188 12.0027C2.78029 11.8477 3.23722 13.0869 3.37457 13.5607C3.51191 14.0345 3.5491 14.1163 3.59056 14.1064C3.99889 14.0087 3.54324 13.0243 3.50842 12.8072C3.50404 12.7798 3.54189 12.9292 3.6389 13.176C3.73591 13.4229 3.90694 13.817 4.09544 14.1837C4.28394 14.5503 4.48472 14.8775 4.59187 15.0052C4.69902 15.1328 4.70645 15.051 4.63592 14.7672C4.56539 14.4834 4.41666 14 4.24709 13.5205C4.07752 13.041 3.89162 12.5799 3.9706 12.6361C4.04958 12.6924 4.39909 13.2798 4.59029 13.5973C4.78149 13.9148 4.8038 13.9446 4.81158 13.945C4.81191 13.9157 4.80425 13.7587 4.71873 13.1693C4.63322 12.7063 4.46218 11.9106 4.28597 11.0908"
          stroke="currentColor" stroke-linecap="round" />
        <path
          d="M4.12822 10.5275C4.42567 11.0629 4.63096 11.4354 4.63546 11.3439C4.58792 11.1557 4.43919 10.6798 4.34027 10.3974C4.24134 10.1151 4.19672 10.0407 4.15075 9.96411"
          stroke="currentColor" stroke-linecap="round" />
        <path
          d="M4.15419 9.78287C4.21537 9.96788 4.26413 10.1225 4.27086 10.1662C4.27678 10.2046 4.19628 9.95766 4.12496 9.75879C4.11422 9.72885 4.12496 9.73837 4.15419 9.78287C4.17337 9.81209 4.20051 9.85637 4.23476 9.91445C4.09448 9.49941 3.96359 9.04343 4.12969 9.24141C4.19898 9.32399 4.324 9.64714 4.44855 9.76634C4.62443 9.93467 4.73385 10.1526 4.88819 10.5911C4.90237 10.6314 4.91607 10.6717 4.92925 10.7118C4.9225 10.6451 4.92002 10.5999 4.93529 10.5802C5.01668 10.475 5.26124 10.923 5.51588 11.5067C5.66437 11.847 5.80026 12.2985 5.89175 12.6102C5.95609 12.8293 5.99989 12.9969 6.03176 13.118C6.10702 13.2993 6.13902 13.4016 6.10729 13.359C6.08917 13.3346 6.06832 13.2569 6.03176 13.118C5.95852 12.9415 5.8443 12.6902 5.70798 12.4246C5.5588 12.1339 5.30876 11.7641 5.13488 11.5012C5.14869 11.5824 5.15016 11.623 5.13753 11.6039C4.99106 11.3818 4.86306 11.1514 4.86442 11.087C4.86452 11.0822 4.86746 11.0854 4.88481 11.1123C4.86203 11.0633 4.82851 10.9947 4.7789 10.9013C4.72069 10.7916 4.66528 10.6883 4.61312 10.5918C4.66973 10.7374 4.73337 10.9002 4.80222 11.074C4.95013 11.4473 5.035 11.8857 5.08491 12.1265C5.13483 12.3672 5.12739 12.4044 5.30947 13.0334C5.40401 13.3599 5.5497 13.8457 5.6984 14.3336C5.72995 14.3513 5.76215 14.371 5.7935 14.393L5.80034 14.3977C5.99937 14.5367 6.31744 14.7589 6.60958 15.207C6.95424 15.7357 7.19879 16.2644 7.19288 16.1828C7.18521 16.0773 7.10943 15.782 6.92855 15.4029C6.73363 14.9945 6.61337 14.6299 6.64901 14.6706C6.69399 14.7219 6.75319 14.801 6.81611 14.8984C6.7727 14.793 6.73067 14.6846 6.69566 14.5831C6.57968 14.247 6.48654 13.8368 6.46006 13.6266C6.35046 13.4197 6.26487 13.209 6.32925 13.0887C6.33703 13.0741 6.36084 13.0954 6.42795 13.1919C6.60811 13.4509 6.91977 13.7734 7.17609 14.2193C7.31546 14.4618 7.43444 14.7592 7.52075 15.0037C7.60705 15.2482 7.65911 15.4341 7.67747 15.5807C7.69584 15.7273 7.66316 15.8491 7.60074 15.7686C7.53632 15.6854 7.45402 15.5814 7.37445 15.4752C7.38438 15.5065 7.39458 15.5393 7.40504 15.5737C7.51151 15.9243 7.66767 16.482 7.73809 16.7838C7.80851 17.0857 7.78494 17.1397 7.76705 17.1143C7.70328 17.0239 7.34508 16.2721 6.97835 16.0142C6.95176 15.9955 6.91458 15.988 6.89599 16.0035C6.8774 16.0189 6.8774 16.0561 6.96167 16.3237C7.04595 16.5913 7.21864 17.072 7.29901 17.3623C7.35343 17.5589 7.43498 17.7801 7.48487 17.9357C7.51829 17.9683 7.55259 18.0016 7.58768 18.0356C7.77729 18.2192 7.90406 18.2777 7.96907 18.2936C8.03408 18.3095 8.04151 18.2723 8.01932 18.1602C7.95967 17.8589 7.884 17.6112 7.86901 17.5062C7.8625 17.4605 7.85403 17.4309 7.8911 17.4714C8.02146 17.6136 8.16861 17.8944 8.37423 18.25C8.64469 18.7177 8.91269 18.9549 8.92801 18.9032C8.99735 18.6691 8.92279 18.498 8.8089 18.3685C8.80487 18.3898 8.80063 18.4106 8.79618 18.4307C8.76982 18.5504 8.73633 18.6046 8.67506 18.5216C8.48363 18.2622 8.37862 18.0041 8.39496 18.0278C8.44611 18.1021 8.66077 18.2001 8.8089 18.3685C8.86685 18.0619 8.88198 17.6417 8.86807 17.1898C8.85382 16.7268 8.7705 16.4394 8.73298 16.4273C8.62986 16.3942 8.63562 16.5209 8.67007 16.6632C8.67553 16.6758 8.68145 16.69 8.68802 16.7064C8.74053 16.8452 8.77793 16.9653 8.77376 16.979C8.75427 16.9293 8.70077 16.79 8.67007 16.6632C8.63562 16.5209 8.62986 16.3942 8.73298 16.4273C8.7705 16.4394 8.85382 16.7268 8.86807 17.1898C8.88198 17.6417 8.86685 18.0619 8.8089 18.3685C8.92279 18.498 8.99735 18.6691 8.92801 18.9032C8.91269 18.9549 8.64469 18.7177 8.37423 18.25C8.16861 17.8944 8.02146 17.6136 7.8911 17.4714C7.85403 17.4309 7.8625 17.4605 7.86901 17.5062C7.884 17.6112 7.95967 17.8589 8.01932 18.1602C8.04151 18.2723 8.03408 18.3095 7.96907 18.2936C7.90406 18.2777 7.77729 18.2192 7.58768 18.0356C7.55259 18.0016 7.51829 17.9683 7.48487 17.9357C7.53063 18.0784 7.54975 18.1659 7.49686 18.1286C7.4884 18.1226 7.47409 18.0969 7.37565 17.9389C7.38207 17.9723 7.37219 17.9817 7.34273 17.9558C7.28256 17.903 7.12133 17.7682 6.62208 17.2497C6.21759 16.8297 5.53346 16.1009 5.16074 15.6982C4.92626 15.4449 4.81677 15.3205 4.73306 15.2287C4.78854 15.5419 4.84268 15.7939 4.88244 15.9646C5.01476 16.1256 5.17406 16.3744 5.09697 16.5891C5.08908 16.6111 5.05934 16.5888 5.03297 16.547C5.02746 16.5383 5.02213 16.5288 5.01704 16.5187C5.06687 16.753 5.09688 16.9646 5.07072 16.9382C5.04446 16.9117 4.93824 16.7837 4.81078 16.5572C4.5397 16.0757 4.19511 15.1955 4.24473 15.3949C4.25599 15.4402 4.54403 16.2433 4.43176 15.9527C4.32269 15.6703 3.94057 15.1634 4.14749 14.9364C4.15775 14.9251 4.1715 14.922 4.19071 14.9318C4.13419 14.7714 4.04038 14.6028 4.00428 14.4823C3.99526 14.4522 4.2463 14.7392 4.59153 15.0806C4.6433 15.1318 4.6837 15.1746 4.73306 15.2287C4.72038 15.1571 4.70762 15.0824 4.69496 15.0046C4.64696 14.7101 4.67691 14.6286 4.70341 14.6512C4.92638 14.8413 5.2737 15.7541 5.31138 15.466C5.31487 15.4393 5.16896 14.8435 5.39431 14.2749C5.42079 14.2081 5.45053 14.2155 5.51903 14.246L5.52215 14.2474C5.56864 14.2681 5.63207 14.2964 5.6984 14.3336C5.5497 13.8457 5.40401 13.3599 5.30947 13.0334C5.12739 12.4044 5.13483 12.3672 5.08491 12.1265C5.035 11.8857 4.95013 11.4473 4.80222 11.074C4.73337 10.9002 4.66973 10.7374 4.61312 10.5918C4.53849 10.4539 4.47051 10.3301 4.4105 10.2225C4.45241 10.4123 4.48829 10.5977 4.4321 10.4595C4.40047 10.3817 4.31604 10.1549 4.23476 9.91445C4.20051 9.85637 4.17337 9.81209 4.15419 9.78287Z"
          fill="currentColor" />
        <path
          d="M3.92542 9.10767C4.02952 9.41278 4.25577 10.0683 4.27086 10.1662C4.27678 10.2046 4.19628 9.95766 4.12496 9.75879C4.08379 9.64401 4.3583 10.1091 4.7789 10.9013C4.92958 11.1851 4.93179 11.2399 4.93562 11.2109C4.98085 10.869 4.89439 10.633 4.93529 10.5802C5.01668 10.475 5.26124 10.923 5.51588 11.5067C5.66437 11.847 5.80026 12.2985 5.89175 12.6102C6.0299 13.0808 6.07338 13.3135 6.10729 13.359C6.1699 13.443 5.98437 12.963 5.70798 12.4246C5.53002 12.0779 5.20851 11.6184 5.04401 11.3622C4.87951 11.106 4.86464 11.0763 4.86442 11.087C4.86306 11.1514 4.99106 11.3818 5.13753 11.6039C5.1776 11.6646 5.07579 11.124 4.88819 10.5911C4.73385 10.1526 4.62443 9.93467 4.44855 9.76634C4.324 9.64714 4.19898 9.32399 4.12969 9.24141C3.86733 8.92872 4.3459 10.2474 4.4321 10.4595C4.53062 10.7019 4.34613 9.94932 4.3423 9.92273C4.33196 9.85099 4.52482 10.3739 4.80222 11.074C4.95013 11.4473 5.035 11.8857 5.08491 12.1265C5.13483 12.3672 5.12739 12.4044 5.30947 13.0334C5.49154 13.6623 5.86336 14.8818 6.08092 15.5696C6.39327 16.5569 6.44159 16.7087 6.43809 16.702C6.1422 16.1389 6.03619 15.6804 6.04724 15.6651C6.10405 15.5863 6.29759 16.0457 6.54513 16.4993C6.74161 16.8594 6.98804 17.3297 7.21789 17.6687C7.32634 17.8287 6.81858 17.0796 6.56011 16.6336C6.43341 16.415 6.29421 16.2249 6.43719 16.4562C6.58017 16.6875 7.00404 17.3493 7.23355 17.7126C7.46306 18.0758 7.48537 18.1204 7.49686 18.1286C7.60741 18.2066 7.40335 17.7392 7.29901 17.3623C7.21864 17.072 7.04595 16.5913 6.96167 16.3237C6.8774 16.0561 6.8774 16.0189 6.89599 16.0035C6.91458 15.988 6.95176 15.9955 6.97835 16.0142C7.34508 16.2721 7.70328 17.0239 7.76705 17.1143C7.78494 17.1397 7.80851 17.0857 7.73809 16.7838C7.66767 16.482 7.51151 15.9243 7.40504 15.5737C7.25896 15.0928 7.16313 14.9219 7.14037 14.925C6.94623 14.9509 7.37923 15.4826 7.60074 15.7686C7.66316 15.8491 7.69584 15.7273 7.67747 15.5807C7.65911 15.4341 7.60705 15.2482 7.52075 15.0037C7.43444 14.7592 7.31546 14.4618 7.17609 14.2193C6.91977 13.7734 6.60811 13.4509 6.42795 13.1919C6.36084 13.0954 6.33703 13.0741 6.32925 13.0887C6.22201 13.2892 6.53082 13.74 6.67369 14.0073C6.70573 14.0672 6.58513 13.6612 6.48372 13.5063C6.39139 13.3654 6.51617 14.0629 6.69566 14.5831C6.79929 14.8835 6.96438 15.2446 7.04483 15.4063C7.12527 15.568 7.12527 15.5159 7.07694 15.3962C6.95032 15.0824 6.75796 14.7948 6.64901 14.6706C6.61337 14.6299 6.73363 14.9945 6.92855 15.4029C7.10943 15.782 7.18521 16.0773 7.19288 16.1828C7.19879 16.2644 6.95424 15.7357 6.60958 15.207C6.31407 14.7537 5.99203 14.5317 5.7935 14.393C5.69474 14.324 5.58754 14.2766 5.51903 14.246C5.45053 14.2155 5.42079 14.2081 5.39431 14.2749C5.16896 14.8435 5.31487 15.4393 5.31138 15.466C5.2737 15.7541 4.92638 14.8413 4.70341 14.6512C4.67691 14.6286 4.64696 14.7101 4.69496 15.0046C4.83113 15.8402 4.97709 16.3342 4.93979 16.1884C4.87985 15.954 4.62578 15.5403 4.33306 15.0973C4.22448 14.9329 4.17419 14.9071 4.14749 14.9364C3.94057 15.1634 4.32269 15.6703 4.43176 15.9527C4.54403 16.2433 4.25599 15.4402 4.24473 15.3949C4.19511 15.1955 4.5397 16.0757 4.81078 16.5572C4.93824 16.7837 5.04446 16.9117 5.07072 16.9382C5.10213 16.9699 5.05258 16.6587 4.98497 16.3768C4.96531 16.2948 4.96199 16.3402 4.97314 16.393C4.9843 16.4457 5.00661 16.5052 5.03297 16.547C5.05934 16.5888 5.08908 16.6111 5.09697 16.5891C5.21038 16.2732 4.81214 15.8835 4.74093 15.8083C4.65655 15.7193 4.50454 15.6061 4.39897 15.4254C4.32208 15.2937 4.25622 15.1626 4.21475 15.0085C4.16596 14.8271 4.0462 14.6222 4.00428 14.4823C3.99526 14.4522 4.2463 14.7392 4.59153 15.0806C4.73112 15.2186 4.78802 15.2956 5.16074 15.6982C5.53346 16.1009 6.21759 16.8297 6.62208 17.2497C7.12133 17.7682 7.28256 17.903 7.34273 17.9558C7.46182 18.0604 7.26093 17.5891 6.95751 17.2812C6.89117 17.2138 6.8481 17.1979 6.83638 17.2087C6.79559 17.2464 7.12257 17.5853 7.58768 18.0356C7.77729 18.2192 7.90406 18.2777 7.96907 18.2936C8.03408 18.3095 8.04151 18.2723 8.01932 18.1602C7.95967 17.8589 7.884 17.6112 7.86901 17.5062C7.8625 17.4605 7.85403 17.4309 7.8911 17.4714C8.02146 17.6136 8.16861 17.8944 8.37423 18.25C8.64469 18.7177 8.91269 18.9549 8.92801 18.9032C9.08754 18.3647 8.48544 18.1592 8.39496 18.0278C8.37862 18.0041 8.48363 18.2622 8.67506 18.5216C8.73633 18.6046 8.76982 18.5504 8.79618 18.4307C8.86461 18.1202 8.88294 17.6731 8.86807 17.1898C8.85382 16.7268 8.7705 16.4394 8.73298 16.4273C8.53794 16.3647 8.73241 16.8736 8.77376 16.979C8.77793 16.9653 8.74053 16.8452 8.68802 16.7064C8.66526 16.6494 8.65039 16.6197 8.63506 16.589"
          stroke="currentColor" stroke-linecap="round" />
        <path
          d="M8.22945 16.4089C8.27406 16.4387 8.3491 16.5284 8.46144 16.708C8.52172 16.8132 8.58864 16.9471 8.62684 16.9863C8.66503 17.0255 8.67247 16.966 8.6576 16.8596"
          stroke="currentColor" stroke-linecap="round" />
        <path
          d="M9.66014 19.6758C9.64361 19.6429 9.62524 19.6064 9.606 19.5677C9.7414 19.6368 9.84131 19.7005 9.91624 19.7857C9.97223 19.8493 10.051 19.9784 10.0094 19.9616L10.0088 19.9614C9.96959 19.9456 9.75126 19.8573 9.66014 19.6758Z"
          fill="currentColor" />
        <path
          d="M8.40971 16.4539C8.44689 16.551 8.567 17.1623 8.72452 17.7219C8.8095 18.0238 8.91268 18.1358 9.05498 18.3867C9.29245 18.8055 9.38544 19.0886 9.46488 19.2702C9.52529 19.4083 9.60358 19.5631 9.66014 19.6758C9.75172 19.8582 9.97178 19.9464 10.0094 19.9616C10.051 19.9784 9.97223 19.8493 9.91624 19.7857C9.74842 19.5949 9.4553 19.5122 8.91865 19.234C8.72554 19.1339 8.5981 19.0457 8.46661 18.9518C8.29762 18.831 8.16995 18.7677 8.06832 18.6851C7.93406 18.576 7.77199 18.4373 7.63668 18.2986C7.38581 18.0415 7.23839 17.9641 6.98735 17.7841C6.80919 17.6563 6.66016 17.5585 6.04982 17.1279C5.81132 16.9596 5.71372 16.8599 5.61198 16.7994C5.50861 16.7379 5.63801 17.1434 5.75011 17.3695C5.84704 17.565 6.03551 17.6626 6.13714 17.7605C6.24663 17.866 6.35865 17.9632 6.47132 18.0534C6.59575 18.1531 6.70387 18.3012 6.81316 18.3877C6.92532 18.4765 7.08696 18.5788 7.19996 18.6733C7.30576 18.7616 7.45516 18.7744 7.56051 18.8871C7.67702 19.0117 7.80805 19.1048 7.93604 19.2027C8.05207 19.2914 8.19113 19.3454 8.30042 19.4243C8.41692 19.4883 8.5145 19.5408 8.58571 19.5821C8.61973 19.601 8.64948 19.6159 8.74773 19.6537"
          stroke="currentColor" stroke-linecap="round" />
        <path
          d="M16.362 11.5633C16.2676 11.7064 16.1788 11.8403 16.1007 11.957C15.7187 12.5278 15.6107 12.6573 15.5659 12.7025C15.5495 12.719 15.7376 12.3901 16.2854 11.6627C16.3099 11.6302 16.3354 11.5971 16.362 11.5633C16.507 11.3786 16.6809 11.1761 16.8598 10.9732C17.1243 10.6731 17.3996 10.3721 17.6083 10.1268C17.984 9.68536 18.146 9.45866 18.0513 9.61716C17.6202 10.3385 17.1577 10.9798 16.9676 11.1808C16.8563 11.2986 16.702 11.4358 16.6403 11.4596C16.622 11.4136 16.7085 11.2305 16.8598 10.9732C16.6809 11.1761 16.507 11.3786 16.362 11.5633Z"
          fill="currentColor" />
        <path
          d="M17.037 10.2065C16.5257 10.8702 16.2198 11.2523 16.1811 11.3456C16.1108 11.5145 16.8584 10.6043 17.4907 9.79757C17.7154 9.51099 17.7344 9.46586 17.4271 9.9348C17.1198 10.4037 16.4828 11.3861 16.1007 11.957C15.7187 12.5278 15.6107 12.6573 15.5659 12.7025C15.5495 12.719 15.7376 12.3901 16.2854 11.6627C16.6413 11.1901 17.2326 10.5683 17.6083 10.1268C17.984 9.68536 18.146 9.45866 18.0513 9.61716C17.6202 10.3385 17.1577 10.9798 16.9676 11.1808C16.8563 11.2986 16.702 11.4358 16.6403 11.4596C16.6111 11.3861 16.8496 10.9622 17.1927 10.4445C17.3308 10.2506 17.3955 10.1967 17.4296 10.1411"
          stroke="currentColor" stroke-linecap="round" />
        <path
          d="M12.8824 15.4077C12.8608 15.4293 13.2383 15.1166 13.6976 14.7986C13.5092 15.1499 13.1883 15.603 13.0903 15.7664C13.0463 15.8326 13.0139 15.865 13.0133 15.8657"
          stroke="currentColor" stroke-linecap="round" />
        <path
          d="M14.5776 14.2248C14.5563 14.2198 15.1876 13.3346 15.3641 13.2097C15.2685 13.3515 15.1632 13.503 15.049 13.662C14.7876 14.0259 14.6514 14.2421 14.5776 14.2248Z"
          fill="currentColor" />
        <path
          d="M15.6303 14.1974C15.6087 14.2405 15.0686 14.8673 14.591 15.1626C14.3243 15.3274 15.2901 13.6118 15.3971 13.2745C15.5294 12.8574 14.5511 14.2186 14.5776 14.2248C14.6514 14.2421 14.7876 14.0259 15.049 13.662C15.7067 12.7463 16.0664 12.0825 16.018 12.0493C15.8344 11.9234 15.5122 12.4616 15.0453 13.0151C14.7502 13.3648 14.384 13.8925 14.2271 14.0892C14.0702 14.286 14.1458 14.1457 14.2603 13.9546C14.3748 13.7636 14.5259 13.5261 14.6816 13.2487"
          stroke="currentColor" stroke-linecap="round" />
        <path
          d="M13.9196 15.005C13.9123 15.0101 13.905 15.0153 13.8976 15.0206C13.8802 15.0375 13.8637 15.0496 13.849 15.0553C13.6978 15.1635 13.5404 15.2787 13.3982 15.3783C13.2482 15.4834 13.2743 15.4091 13.3288 15.3325C13.4756 15.1263 13.6447 14.9834 13.7962 14.8785C13.8321 14.7924 13.8883 14.7101 13.8911 14.7203C13.899 14.7487 13.9052 14.7766 13.91 14.8041C13.9602 14.7729 14.0068 14.7457 14.048 14.7215C14.1001 14.6908 14.0824 14.7417 14.0496 14.8018C14.0083 14.8777 13.9623 14.9486 13.9202 14.9966C13.92 14.9994 13.9198 15.0022 13.9196 15.005Z"
          fill="currentColor" />
        <path
          d="M10.9851 20.1839C11.0067 20.1839 11.061 20.1839 11.148 20.1623C11.3504 20.1121 11.3986 19.8142 11.5407 19.6176C11.7094 19.3842 11.7264 19.0945 11.7862 18.8274C11.8616 18.4912 12.064 18.3421 12.2004 18.0857C12.2954 17.907 12.5324 17.7428 12.6476 17.4697C12.7751 17.1672 13.0669 16.9688 13.3285 16.6195C13.5593 16.3112 13.6996 16.1281 13.8468 15.8615C14.0364 15.5181 14.2446 15.2135 14.4085 14.9832C14.4681 14.8994 14.5178 14.7977 14.529 14.7213C14.561 14.5049 13.889 15.0345 13.3982 15.3783C13.2482 15.4834 13.2743 15.4091 13.3288 15.3325C13.5664 14.9987 13.8625 14.8307 14.048 14.7215C14.1001 14.6908 14.0824 14.7417 14.0496 14.8018C13.9753 14.9382 13.8861 15.0584 13.8314 15.0591C13.6591 15.0611 13.8854 14.6995 13.8911 14.7203C14.06 15.3332 13.4942 15.7441 13.2269 16.1315C12.9492 16.4425 12.6322 16.7699 12.5342 16.9278C12.4902 16.9993 12.4578 17.0532 12.4572 17.1416"
          stroke="currentColor" stroke-linecap="round" />
        <path
          d="M12.7189 19.8569C13.0339 19.5091 13.3182 19.1817 13.5521 18.9147C13.7708 18.6652 13.8848 18.375 14.1897 17.907C14.3561 17.6515 14.4958 17.4911 14.653 17.2745C15.2685 16.4265 15.4334 16.085 15.5698 15.9048C15.9094 15.4561 16.2296 14.8092 16.4415 14.4286C16.9028 13.5997 17.1129 13.3156 17.2763 12.9503C17.3774 12.7243 17.44 12.4761 17.5545 12.2355C17.6501 12.0347 17.7456 11.8435 17.8326 11.5868C17.9177 11.3357 18.0616 11.0374 18.2412 10.6005C18.3998 10.3164 18.4652 10.0331 18.5307 9.81477C18.5418 9.75998 18.5418 9.706 18.5418 9.65039"
          stroke="currentColor" stroke-linecap="round" />
        <path
          d="M12.448 19.5612C12.4577 19.5476 12.4678 19.5337 12.4784 19.5194C12.5112 19.4755 12.5867 19.4754 12.5877 19.5076C12.5887 19.5398 12.5239 19.6154 12.4905 19.5949C12.4748 19.5853 12.4607 19.574 12.448 19.5612C12.2267 19.3376 12.4502 18.6491 12.5223 18.2385C12.5603 18.0216 12.7398 17.7972 12.8927 17.5406C12.9697 17.4114 13.0892 17.3058 13.16 17.2347C13.18 17.2146 13.1984 17.2823 13.1878 17.3317C13.1428 17.5407 12.8183 17.7612 12.6647 18.1001C12.636 18.1636 12.6318 18.2094 12.6533 18.237C12.7051 18.3039 12.8383 18.2758 12.9093 18.3026C12.9495 18.3178 12.9547 18.3532 12.9455 18.391C13.3209 17.7639 13.7078 17.5161 13.8465 17.3824C13.89 17.3404 13.8965 17.3915 13.8857 17.4408C13.833 17.6814 14.6372 16.4455 14.7958 16.2531C14.8458 16.1925 14.6712 16.4972 14.6435 16.6122C14.5468 17.0144 15.311 15.8128 15.7594 15.4265C16.2493 15.0043 16.3497 14.4922 16.3718 14.4539C16.4711 14.2818 16.0886 14.7532 16.018 14.8023C15.8641 14.9092 15.4873 15.0517 14.9557 15.3008C14.8418 15.4323 14.7795 15.4784 14.7353 15.4837C14.7004 15.4879 14.677 15.4674 14.6555 15.4452C14.599 15.4732 14.5412 15.5022 14.4821 15.5325C14.4061 15.5714 14.505 15.4104 14.5714 15.3977C14.6073 15.3908 14.6301 15.4192 14.6555 15.4452C14.7602 15.3934 14.8604 15.3454 14.9557 15.3008C15.4873 15.0517 15.8641 14.9092 16.018 14.8023C16.0886 14.7532 16.4711 14.2818 16.3718 14.4539C16.3497 14.4922 16.2493 15.0043 15.7594 15.4265C15.311 15.8128 14.5468 17.0144 14.6435 16.6122C14.6712 16.4972 14.8458 16.1925 14.7958 16.2531C14.6372 16.4455 13.833 17.6814 13.8857 17.4408C13.8965 17.3915 13.89 17.3404 13.8465 17.3824C13.7078 17.5161 13.3209 17.7639 12.9455 18.391C12.9281 18.4623 12.8592 18.5421 12.8765 18.5108C12.8994 18.4694 12.9224 18.4295 12.9455 18.391C12.9547 18.3532 12.9495 18.3178 12.9093 18.3026C12.8383 18.2758 12.7051 18.3039 12.6533 18.237C12.6318 18.2094 12.636 18.1636 12.6647 18.1001C12.8183 17.7612 13.1428 17.5407 13.1878 17.3317C13.1984 17.2823 13.18 17.2146 13.16 17.2347C13.0892 17.3058 12.9697 17.4114 12.8927 17.5406C12.7398 17.7972 12.5603 18.0216 12.5223 18.2385C12.4502 18.6491 12.2267 19.3376 12.448 19.5612Z"
          fill="currentColor" />
        <path
          d="M12.3263 19.7259C12.3695 19.6828 12.4133 19.6065 12.4784 19.5194C12.5112 19.4755 12.5867 19.4754 12.5877 19.5076C12.5887 19.5398 12.5239 19.6154 12.4905 19.5949C12.2006 19.4173 12.446 18.6726 12.5223 18.2385C12.5603 18.0216 12.7398 17.7972 12.8927 17.5406C12.9697 17.4114 13.0892 17.3058 13.16 17.2347C13.18 17.2146 13.1984 17.2823 13.1878 17.3317C13.1428 17.5407 12.8183 17.7612 12.6647 18.1001C12.636 18.1636 12.6318 18.2094 12.6533 18.237C12.7051 18.3039 12.8383 18.2758 12.9093 18.3026C13.0253 18.3465 12.85 18.5587 12.8765 18.5108C13.2724 17.7948 13.6993 17.5244 13.8465 17.3824C13.89 17.3404 13.8965 17.3915 13.8857 17.4408C13.833 17.6814 14.6372 16.4455 14.7958 16.2531C14.8458 16.1925 14.6712 16.4972 14.6435 16.6122C14.5468 17.0144 15.311 15.8128 15.7594 15.4265C16.2493 15.0043 16.3497 14.4922 16.3718 14.4539C16.4711 14.2818 16.0886 14.7532 16.018 14.8023C15.8217 14.9386 15.2626 15.133 14.4821 15.5325C14.4061 15.5714 14.505 15.4104 14.5714 15.3977C14.6378 15.3849 14.6594 15.4929 14.7353 15.4837C14.8112 15.4746 14.9407 15.345 15.2935 14.8681C15.6464 14.3911 16.2185 13.5707 16.5187 13.121C17.1472 12.1794 17.3098 11.2091 17.2393 11.3179C17.065 11.5869 16.8309 11.689 16.5963 11.7166C16.2458 11.758 15.9476 11.9939 15.789 12.1578C15.6403 12.3114 15.489 12.4306 15.4182 12.4473C15.2188 12.4943 15.4445 12.007 15.5698 11.7503C15.6863 11.5118 15.8803 11.3416 16.0116 11.1015C16.04 11.0495 16.0445 11.0033 16.0824 10.9649C16.2488 10.7964 16.4259 10.7743 16.5566 10.616C16.7417 10.3918 16.8512 10.2182 16.9873 10.0112C17.2019 9.68449 17.3092 9.50966 17.4614 9.26448C17.7565 8.78941 17.8653 8.61529 18.2784 7.96822C18.4715 7.66594 18.5411 7.42715 18.7211 7.08366C18.8517 6.83421 18.9232 6.60932 18.9723 6.38524C19.0181 6.17623 19.0868 5.94394 19.2391 5.73097C19.4221 5.47502 19.3158 4.98414 19.3323 4.80405C19.392 4.58046 19.5225 4.36259 19.5938 4.1879C19.6102 4.14406 19.6318 4.10088 19.7195 3.99097"
          stroke="currentColor" stroke-linecap="round" />
        <path
          d="M20.0793 3.10767C20.0685 3.20515 20.0466 3.44461 20.0033 3.63042C19.9565 3.83099 19.8395 3.93596 19.8232 3.94741C19.7968 3.96588 19.8176 3.80773 19.7906 3.7845C19.6246 3.64165 19.5238 4.10999 19.3277 4.32263C19.0628 4.60984 18.8369 4.971 18.7656 5.16793C18.6982 5.35382 18.5856 5.51666 18.4877 5.69134C18.3981 5.85102 18.3894 6.04006 18.286 6.21475C18.1803 6.39328 18.1061 6.61778 17.9916 6.80359C17.8903 6.96792 17.8012 7.1739 17.6916 7.35971C17.5924 7.52794 17.5388 7.70843 17.4354 7.86676C17.2975 8.07801 17.2339 8.36204 17.1029 8.55374C16.9566 8.76781 16.8846 8.95153 16.7432 9.07191C16.5727 9.21719 16.5463 9.51746 16.4922 9.75316C16.4339 10.0066 16.263 10.1292 16.1271 10.3472C15.9196 10.68 15.7291 11.0452 15.5981 11.2524C15.4649 11.4631 15.3261 11.7747 15.1782 12.005C15.074 12.1674 15.031 12.3537 14.998 12.5555C14.9654 12.7548 14.9106 12.9425 14.8076 13.1661C14.717 13.3628 14.5946 13.5202 14.4695 13.8472C14.3437 14.176 14.3768 14.6109 14.2515 14.8453C14.118 15.095 13.9626 15.2979 13.8099 15.4725C13.7006 15.6364 13.5485 15.8965 13.4009 16.1376C13.3627 16.1922 13.3195 16.257 13.2423 16.3565"
          stroke="currentColor" stroke-linecap="round" />
        <path
          d="M19.883 4.74341C19.7525 4.89552 19.6867 5.13466 19.6216 5.38573C19.5346 5.72159 19.5016 5.94201 19.4851 6.1221C19.4616 6.37846 19.4362 6.6617 19.3707 6.86354C19.3143 7.03781 19.2294 7.23941 19.0984 7.41983C18.9866 7.57372 18.8912 7.74123 18.8038 7.92672C18.6993 8.14872 18.6511 8.33007 18.602 8.50476C18.5437 8.71237 18.4986 8.95162 18.498 9.12107C18.4978 9.14856 18.5627 9.11649 18.5958 9.08378C18.7314 8.94945 18.7813 8.74618 18.9229 8.53894C18.9559 8.48415 18.9775 8.43017 18.9779 8.38077C18.9782 8.33138 18.9566 8.2882 18.9343 8.24371"
          stroke="currentColor" stroke-linecap="round" />
        <path
          d="M14.3218 18.8099C14.4962 18.734 14.626 18.5384 14.8987 18.217C15.1458 17.9257 15.1717 17.7094 15.2594 17.5293C15.3048 17.436 15.2165 17.3165 15.1455 17.2078C15.029 17.0293 15.3025 16.8478 15.4933 16.6842C15.6728 16.5302 15.826 16.4225 15.957 16.2481C16.1213 16.0295 16.1969 15.7905 16.3168 15.621C16.4635 15.4137 16.5456 15.2016 16.6495 14.9887C16.7432 14.7967 16.8728 14.5912 16.982 14.3617C17.0915 14.1317 17.1999 13.9258 17.3201 13.7672C17.4322 13.6193 17.5486 13.424 17.6854 13.2493C17.8106 13.0894 17.8764 12.9006 17.9634 12.7043C18.1162 12.388 18.1819 11.8028 18.2363 11.4176C18.2474 11.3628 18.2474 11.3088 18.2474 11.2532"
          stroke="currentColor" stroke-linecap="round" />
        <path
          d="M15.663 17.6323C15.8789 17.5891 16.0549 17.4265 16.1585 17.1923C16.208 17.0552 16.2408 16.9567 16.2951 16.848C16.3278 16.7932 16.371 16.7392 16.4154 16.6509"
          stroke="currentColor" stroke-linecap="round" />
        <path d="M0 0.5L21 0.5" stroke="currentColor" />
      </svg>