<svg viewBox="0 0 24 24" fill="none" stroke="currentColor" stroke-width="2" stroke-linecap="round" stroke-linejoin="round" aria-label="air-vent">
<g id="air-vent-g">
  <rect width="24" height="24" fill="transparent" stroke="none" pointer-events="all" />
  <path pointer-events="none" d="M18 17.5a2.5 2.5 0 1 1-4 2.03V12" />
  <path pointer-events="none" d="M6 12H4a2 2 0 0 1-2-2V5a2 2 0 0 1 2-2h16a2 2 0 0 1 2 2v5a2 2 0 0 1-2 2h-2" />
  <path pointer-events="none" d="M6 8h12" />
  <path pointer-events="none" d="M6.6 15.572A2 2 0 1 0 10 17v-5" />
  <animateTransform attributeName="transform" type="scale" values="1 1; 1.1 1.1; 1 1" transform-origin="12 12" dur="0.5s" begin="air-vent-g.mouseover" />
</g>
</svg>