<svg viewBox="0 0 24 24" fill="none" stroke="currentColor" stroke-width="2" stroke-linecap="round" stroke-linejoin="round" aria-label="alarm-smoke">
<g id="alarm-smoke-g">
  <rect width="24" height="24" fill="transparent" stroke="none" pointer-events="all" />
  <path pointer-events="none" d="M11 21c0-2.5 2-2.5 2-5" />
  <path pointer-events="none" d="M16 21c0-2.5 2-2.5 2-5" />
  <path pointer-events="none" d="m19 8-.8 3a1.25 1.25 0 0 1-1.2 1H7a1.25 1.25 0 0 1-1.2-1L5 8" />
  <path pointer-events="none" d="M21 3a1 1 0 0 1 1 1v2a2 2 0 0 1-2 2H4a2 2 0 0 1-2-2V4a1 1 0 0 1 1-1z" />
  <path pointer-events="none" d="M6 21c0-2.5 2-2.5 2-5" />
  <animateTransform attributeName="transform" type="scale" values="1 1; 1.1 1.1; 1 1" transform-origin="12 12" dur="0.5s" begin="alarm-smoke-g.mouseover" />
</g>
</svg>