<svg viewBox="0 0 24 24" fill="none" stroke="currentColor" stroke-width="2" stroke-linecap="round" stroke-linejoin="round" aria-label="alert-octagon">
<g id="alert-octagon-g">
  <rect width="24" height="24" fill="transparent" stroke="none" pointer-events="all" />
  <path pointer-events="none" d="M12 16h.01" />
  <path pointer-events="none" d="M12 8v4" />
  <path pointer-events="none" d="M15.312 2a2 2 0 0 1 1.414.586l4.688 4.688A2 2 0 0 1 22 8.688v6.624a2 2 0 0 1-.586 1.414l-4.688 4.688a2 2 0 0 1-1.414.586H8.688a2 2 0 0 1-1.414-.586l-4.688-4.688A2 2 0 0 1 2 15.312V8.688a2 2 0 0 1 .586-1.414l4.688-4.688A2 2 0 0 1 8.688 2z" />
  <animateTransform attributeName="transform" type="scale" values="1 1; 1.2 1.2; 1 1" transform-origin="12 12" dur="0.5s" begin="alert-octagon-g.mouseover" />
  <animate attributeName="stroke" values="currentColor; #ef4444; currentColor" dur="0.5s" begin="alert-octagon-g.mouseover" />
</g>
</svg>