<svg viewBox="0 0 24 24" fill="none" stroke="currentColor" stroke-width="2" stroke-linecap="round" stroke-linejoin="round" aria-label="align-center-vertical">
<g id="align-center-vertical-g">
  <rect width="24" height="24" fill="transparent" stroke="none" pointer-events="all" />
  <path pointer-events="none" d="M12 2v20" />
  <path pointer-events="none" d="M8 10H4a2 2 0 0 1-2-2V6c0-1.1.9-2 2-2h4" />
  <path pointer-events="none" d="M16 10h4a2 2 0 0 0 2-2V6a2 2 0 0 0-2-2h-4" />
  <path pointer-events="none" d="M8 20H7a2 2 0 0 1-2-2v-2c0-1.1.9-2 2-2h1" />
  <path pointer-events="none" d="M16 14h1a2 2 0 0 1 2 2v2a2 2 0 0 1-2 2h-1" />
  <animateTransform attributeName="transform" type="scale" values="1 1; 1.1 1.1; 1 1" transform-origin="12 12" dur="0.5s" begin="align-center-vertical-g.mouseover" />
</g>
</svg>