<svg viewBox="0 0 24 24" fill="none" stroke="currentColor" stroke-width="2" stroke-linecap="round" stroke-linejoin="round" aria-label="align-center-horizontal">
<g id="align-center-horizontal-g">
  <rect width="24" height="24" fill="transparent" stroke="none" pointer-events="all" />
  <g pointer-events="none">
    <path  d="M2 12h20">
    <animateTransform attributeName="transform" type="translate" values="0 0; 0 -1; 0 0" dur="0.4s" begin="align-center-horizontal-g.mouseover" calcMode="spline" keySplines="0.4 0 0.2 1; 0.4 0 0.2 1" />
  </path>
  </g>
  <g pointer-events="none">
    <path  d="M10 16v4a2 2 0 0 1-2 2H6a2 2 0 0 1-2-2v-4">
    <animateTransform attributeName="transform" type="translate" values="0 0; 0 -1; 0 0" dur="0.4s" begin="align-center-horizontal-g.mouseover" calcMode="spline" keySplines="0.4 0 0.2 1; 0.4 0 0.2 1" />
  </path>
  </g>
  <g pointer-events="none">
    <path  d="M10 8V4a2 2 0 0 0-2-2H6a2 2 0 0 0-2 2v4">
    <animateTransform attributeName="transform" type="translate" values="0 0; 0 -1; 0 0" dur="0.4s" begin="align-center-horizontal-g.mouseover" calcMode="spline" keySplines="0.4 0 0.2 1; 0.4 0 0.2 1" />
  </path>
  </g>
  <g pointer-events="none">
    <path  d="M20 16v1a2 2 0 0 1-2 2h-2a2 2 0 0 1-2-2v-1">
    <animateTransform attributeName="transform" type="translate" values="0 0; 0 -1; 0 0" dur="0.4s" begin="align-center-horizontal-g.mouseover" calcMode="spline" keySplines="0.4 0 0.2 1; 0.4 0 0.2 1" />
  </path>
  </g>
  <g pointer-events="none">
    <path  d="M14 8V7c0-1.1.9-2 2-2h2a2 2 0 0 1 2 2v1">
    <animateTransform attributeName="transform" type="translate" values="0 0; 0 -1; 0 0" dur="0.4s" begin="align-center-horizontal-g.mouseover" calcMode="spline" keySplines="0.4 0 0.2 1; 0.4 0 0.2 1" />
  </path>
  </g>
</g>
</svg>