<svg viewBox="0 0 24 24" fill="none" stroke="currentColor" stroke-width="2" stroke-linecap="round" stroke-linejoin="round" aria-label="ampersands">
<g id="ampersands-g">
  <rect width="24" height="24" fill="transparent" stroke="none" pointer-events="all" />
  <path pointer-events="none" d="M10 17c-5-3-7-7-7-9a2 2 0 0 1 4 0c0 2.5-5 2.5-5 6 0 1.7 1.3 3 3 3 2.8 0 5-2.2 5-5" />
  <path pointer-events="none" d="M22 17c-5-3-7-7-7-9a2 2 0 0 1 4 0c0 2.5-5 2.5-5 6 0 1.7 1.3 3 3 3 2.8 0 5-2.2 5-5" />
  <animateTransform attributeName="transform" type="scale" values="1 1; 1.1 1.1; 1 1" transform-origin="12 12" dur="0.5s" begin="ampersands-g.mouseover" />
</g>
</svg>