<svg viewBox="0 0 24 24" fill="none" stroke="currentColor" stroke-width="2" stroke-linecap="round" stroke-linejoin="round" aria-label="area-chart">
<g id="area-chart-g">
  <rect width="24" height="24" fill="transparent" stroke="none" pointer-events="all" />
  <path pointer-events="none" d="M3 3v16a2 2 0 0 0 2 2h16" />
  <path pointer-events="none" d="M7 11.207a.5.5 0 0 1 .146-.353l2-2a.5.5 0 0 1 .708 0l3.292 3.292a.5.5 0 0 0 .708 0l4.292-4.292a.5.5 0 0 1 .854.353V16a1 1 0 0 1-1 1H8a1 1 0 0 1-1-1z" />
  <animateTransform attributeName="transform" type="scale" values="1 1; 1.1 1.1; 1 1" transform-origin="12 12" dur="0.5s" begin="area-chart-g.mouseover" />
</g>
</svg>