<svg viewBox="0 0 24 24" fill="none" stroke="currentColor" stroke-width="2" stroke-linecap="round" stroke-linejoin="round" aria-label="area-chart">
<g id="area-chart-g">
  <rect width="24" height="24" fill="transparent" stroke="none" pointer-events="all" />
  <g pointer-events="none">
    <path  d="M3 3v16a2 2 0 0 0 2 2h16">
    <animateTransform attributeName="transform" type="translate" values="0 0; 0 -1; 0 0" dur="0.4s" begin="area-chart-g.mouseover" calcMode="spline" keySplines="0.4 0 0.2 1; 0.4 0 0.2 1" />
  </path>
  </g>
  <g pointer-events="none">
    <path  d="M7 11.207a.5.5 0 0 1 .146-.353l2-2a.5.5 0 0 1 .708 0l3.292 3.292a.5.5 0 0 0 .708 0l4.292-4.292a.5.5 0 0 1 .854.353V16a1 1 0 0 1-1 1H8a1 1 0 0 1-1-1z">
    <animateTransform attributeName="transform" type="translate" values="0 0; 0 -1; 0 0" dur="0.4s" begin="area-chart-g.mouseover" calcMode="spline" keySplines="0.4 0 0.2 1; 0.4 0 0.2 1" />
  </path>
  </g>
</g>
</svg>