<svg viewBox="0 0 24 24" fill="none" stroke="currentColor" stroke-width="2" stroke-linecap="round" stroke-linejoin="round" aria-label="arrow-big-left">
<g id="arrow-big-left-g">
  <rect width="24" height="24" fill="transparent" stroke="none" pointer-events="all" />
  <path pointer-events="none" d="M13 9a1 1 0 0 1-1-1V5.061a1 1 0 0 0-1.811-.75l-6.835 6.836a1.207 1.207 0 0 0 0 1.707l6.835 6.835a1 1 0 0 0 1.811-.75V16a1 1 0 0 1 1-1h6a1 1 0 0 0 1-1v-4a1 1 0 0 0-1-1z" />
  <animateTransform attributeName="transform" type="translate" values="0 0; 2 0; 0 0" dur="0.5s" begin="arrow-big-left-g.mouseover" />
</g>
</svg>