<svg viewBox="0 0 24 24" fill="none" stroke="currentColor" stroke-width="2" stroke-linecap="round" stroke-linejoin="round" aria-label="arrow-big-right-dash">
<g id="arrow-big-right-dash-g">
  <rect width="24" height="24" fill="transparent" stroke="none" pointer-events="all" />
  <path pointer-events="none" d="M11 9a1 1 0 0 0 1-1V5.061a1 1 0 0 1 1.811-.75l6.836 6.836a1.207 1.207 0 0 1 0 1.707l-6.836 6.835a1 1 0 0 1-1.811-.75V16a1 1 0 0 0-1-1H9a1 1 0 0 1-1-1v-4a1 1 0 0 1 1-1z" />
  <path pointer-events="none" d="M4 9v6" />
  <animateTransform attributeName="transform" type="translate" values="0 0; 2 0; 0 0" dur="0.5s" begin="arrow-big-right-dash-g.mouseover" />
</g>
</svg>