<svg viewBox="0 0 24 24" fill="none" stroke="currentColor" stroke-width="2" stroke-linecap="round" stroke-linejoin="round" aria-label="arrow-big-up-dash">
<g id="arrow-big-up-dash-g">
  <rect width="24" height="24" fill="transparent" stroke="none" pointer-events="all" />
  <g pointer-events="none">
    <path  d="M9 13a1 1 0 0 0-1-1H5.061a1 1 0 0 1-.75-1.811l6.836-6.835a1.207 1.207 0 0 1 1.707 0l6.835 6.835a1 1 0 0 1-.75 1.811H16a1 1 0 0 0-1 1v2a1 1 0 0 1-1 1h-4a1 1 0 0 1-1-1z">
    <animateTransform attributeName="transform" type="translate" values="0 0; 0 -1; 0 0" dur="0.4s" begin="arrow-big-up-dash-g.mouseover" calcMode="spline" keySplines="0.4 0 0.2 1; 0.4 0 0.2 1" />
  </path>
  </g>
  <g pointer-events="none">
    <path  d="M9 20h6">
    <animateTransform attributeName="transform" type="translate" values="0 0; 0 -1; 0 0" dur="0.4s" begin="arrow-big-up-dash-g.mouseover" calcMode="spline" keySplines="0.4 0 0.2 1; 0.4 0 0.2 1" />
  </path>
  </g>
</g>
</svg>