<svg viewBox="0 0 24 24" fill="none" stroke="currentColor" stroke-width="2" stroke-linecap="round" stroke-linejoin="round" aria-label="axe">
<g id="axe-g">
  <rect width="24" height="24" fill="transparent" stroke="none" pointer-events="all" />
  <g pointer-events="none">
    <path  d="m14 12-8.381 8.38a1 1 0 0 1-3.001-3L11 9">
    <animateTransform attributeName="transform" type="translate" values="0 0; 0 -1; 0 0" dur="0.4s" begin="axe-g.mouseover" calcMode="spline" keySplines="0.4 0 0.2 1; 0.4 0 0.2 1" />
  </path>
  </g>
  <g pointer-events="none">
    <path  d="M15 15.5a.5.5 0 0 0 .5.5A6.5 6.5 0 0 0 22 9.5a.5.5 0 0 0-.5-.5h-1.672a2 2 0 0 1-1.414-.586l-5.062-5.062a1.205 1.205 0 0 0-1.704 0L9.352 5.648a1.205 1.205 0 0 0 0 1.704l5.062 5.062A2 2 0 0 1 15 13.828z">
    <animateTransform attributeName="transform" type="translate" values="0 0; 0 -1; 0 0" dur="0.4s" begin="axe-g.mouseover" calcMode="spline" keySplines="0.4 0 0.2 1; 0.4 0 0.2 1" />
  </path>
  </g>
</g>
</svg>