<svg viewBox="0 0 24 24" fill="none" stroke="currentColor" stroke-width="2" stroke-linecap="round" stroke-linejoin="round" aria-label="backpack">
<g id="backpack-g">
  <rect width="24" height="24" fill="transparent" stroke="none" pointer-events="all" />
  <g pointer-events="none">
    <path  d="M4 10a4 4 0 0 1 4-4h8a4 4 0 0 1 4 4v10a2 2 0 0 1-2 2H6a2 2 0 0 1-2-2z">
    <animateTransform attributeName="transform" type="translate" values="0 0; 0 -1; 0 0" dur="0.4s" begin="backpack-g.mouseover" calcMode="spline" keySplines="0.4 0 0.2 1; 0.4 0 0.2 1" />
  </path>
  </g>
  <g pointer-events="none">
    <path  d="M8 10h8">
    <animateTransform attributeName="transform" type="translate" values="0 0; 0 -1; 0 0" dur="0.4s" begin="backpack-g.mouseover" calcMode="spline" keySplines="0.4 0 0.2 1; 0.4 0 0.2 1" />
  </path>
  </g>
  <g pointer-events="none">
    <path  d="M8 18h8">
    <animateTransform attributeName="transform" type="translate" values="0 0; 0 -1; 0 0" dur="0.4s" begin="backpack-g.mouseover" calcMode="spline" keySplines="0.4 0 0.2 1; 0.4 0 0.2 1" />
  </path>
  </g>
  <g pointer-events="none">
    <path  d="M8 22v-6a2 2 0 0 1 2-2h4a2 2 0 0 1 2 2v6">
    <animateTransform attributeName="transform" type="translate" values="0 0; 0 -1; 0 0" dur="0.4s" begin="backpack-g.mouseover" calcMode="spline" keySplines="0.4 0 0.2 1; 0.4 0 0.2 1" />
  </path>
  </g>
  <g pointer-events="none">
    <path  d="M9 6V4a2 2 0 0 1 2-2h2a2 2 0 0 1 2 2v2">
    <animateTransform attributeName="transform" type="translate" values="0 0; 0 -1; 0 0" dur="0.4s" begin="backpack-g.mouseover" calcMode="spline" keySplines="0.4 0 0.2 1; 0.4 0 0.2 1" />
  </path>
  </g>
</g>
</svg>