<svg viewBox="0 0 24 24" fill="none" stroke="currentColor" stroke-width="2" stroke-linecap="round" stroke-linejoin="round" aria-label="backpack">
<g id="backpack-g">
  <rect width="24" height="24" fill="transparent" stroke="none" pointer-events="all" />
  <path pointer-events="none" d="M4 10a4 4 0 0 1 4-4h8a4 4 0 0 1 4 4v10a2 2 0 0 1-2 2H6a2 2 0 0 1-2-2z" />
  <path pointer-events="none" d="M8 10h8" />
  <path pointer-events="none" d="M8 18h8" />
  <path pointer-events="none" d="M8 22v-6a2 2 0 0 1 2-2h4a2 2 0 0 1 2 2v6" />
  <path pointer-events="none" d="M9 6V4a2 2 0 0 1 2-2h2a2 2 0 0 1 2 2v2" />
  <animateTransform attributeName="transform" type="scale" values="1 1; 1.1 1.1; 1 1" transform-origin="12 12" dur="0.5s" begin="backpack-g.mouseover" />
</g>
</svg>