<svg viewBox="0 0 24 24" fill="none" stroke="currentColor" stroke-width="2" stroke-linecap="round" stroke-linejoin="round" aria-label="barrel">
<g id="barrel-g">
  <rect width="24" height="24" fill="transparent" stroke="none" pointer-events="all" />
  <path pointer-events="none" d="M10 3a41 41 0 0 0 0 18" />
  <path pointer-events="none" d="M14 3a41 41 0 0 1 0 18" />
  <path pointer-events="none" d="M17 3a2 2 0 0 1 1.68.92 15.25 15.25 0 0 1 0 16.16A2 2 0 0 1 17 21H7a2 2 0 0 1-1.68-.92 15.25 15.25 0 0 1 0-16.16A2 2 0 0 1 7 3z" />
  <path pointer-events="none" d="M3.84 17h16.32" />
  <path pointer-events="none" d="M3.84 7h16.32" />
  <animateTransform attributeName="transform" type="scale" values="1 1; 1.1 1.1; 1 1" transform-origin="12 12" dur="0.5s" begin="barrel-g.mouseover" />
</g>
</svg>