<svg viewBox="0 0 24 24" fill="none" stroke="currentColor" stroke-width="2" stroke-linecap="round" stroke-linejoin="round" aria-label="biohazard">
<g id="biohazard-g">
  <rect width="24" height="24" fill="transparent" stroke="none" pointer-events="all" />
  <circle pointer-events="none" cx="12" cy="11.9" r="2" />
  <path pointer-events="none" d="M6.7 3.4c-.9 2.5 0 5.2 2.2 6.7C6.5 9 3.7 9.6 2 11.6" />
  <path pointer-events="none" d="m8.9 10.1 1.4.8" />
  <path pointer-events="none" d="M17.3 3.4c.9 2.5 0 5.2-2.2 6.7 2.4-1.2 5.2-.6 6.9 1.5" />
  <path pointer-events="none" d="m15.1 10.1-1.4.8" />
  <path pointer-events="none" d="M16.7 20.8c-2.6-.4-4.6-2.6-4.7-5.3-.2 2.6-2.1 4.8-4.7 5.2" />
  <path pointer-events="none" d="M12 13.9v1.6" />
  <path pointer-events="none" d="M13.5 5.4c-1-.2-2-.2-3 0" />
  <path pointer-events="none" d="M17 16.4c.7-.7 1.2-1.6 1.5-2.5" />
  <path pointer-events="none" d="M5.5 13.9c.3.9.8 1.8 1.5 2.5" />
  <animateTransform attributeName="transform" type="scale" values="1 1; 1.1 1.1; 1 1" transform-origin="12 12" dur="0.5s" begin="biohazard-g.mouseover" />
</g>
</svg>