<svg viewBox="0 0 24 24" fill="none" stroke="currentColor" stroke-width="2" stroke-linecap="round" stroke-linejoin="round" aria-label="box-select">
<g id="box-select-g">
  <rect width="24" height="24" fill="transparent" stroke="none" pointer-events="all" />
  <path pointer-events="none" d="M5 3a2 2 0 0 0-2 2" />
  <path pointer-events="none" d="M19 3a2 2 0 0 1 2 2" />
  <path pointer-events="none" d="M21 19a2 2 0 0 1-2 2" />
  <path pointer-events="none" d="M5 21a2 2 0 0 1-2-2" />
  <path pointer-events="none" d="M9 3h1" />
  <path pointer-events="none" d="M9 21h1" />
  <path pointer-events="none" d="M14 3h1" />
  <path pointer-events="none" d="M14 21h1" />
  <path pointer-events="none" d="M3 9v1" />
  <path pointer-events="none" d="M21 9v1" />
  <path pointer-events="none" d="M3 14v1" />
  <path pointer-events="none" d="M21 14v1" />
  <animateTransform attributeName="transform" type="scale" values="1 1; 1.2 1.2; 1 1" transform-origin="12 12" dur="0.5s" begin="box-select-g.mouseover" />
  <animate attributeName="stroke" values="currentColor; #ef4444; currentColor" dur="0.5s" begin="box-select-g.mouseover" />
</g>
</svg>