<svg viewBox="0 0 24 24" fill="none" stroke="currentColor" stroke-width="2" stroke-linecap="round" stroke-linejoin="round" aria-label="box">
<g id="box-g">
  <rect width="24" height="24" fill="transparent" stroke="none" pointer-events="all" />
  
  <path pointer-events="none" d="M21 16V8a2 2 0 0 0-1-1.73l-7-4a2 2 0 0 0-2 0l-7 4A2 2 0 0 0 3 8v8a2 2 0 0 0 1 1.73l7 4a2 2 0 0 0 2 0l7-4A2 2 0 0 0 21 16z" />
  <polyline pointer-events="none" points="3.27 6.96 12 12.01 20.73 6.96">
    <animateTransform attributeName="transform" type="translate" values="0 0; 0 -3; 0 0" dur="0.5s" begin="box-g.mouseover" />
  </polyline>
  <line pointer-events="none" x1="12" y1="22.08" x2="12" y2="12" />

</g>
</svg>