<svg viewBox="0 0 24 24" fill="none" stroke="currentColor" stroke-width="2" stroke-linecap="round" stroke-linejoin="round" aria-label="boxes">
<g id="boxes-g">
  <rect width="24" height="24" fill="transparent" stroke="none" pointer-events="all" />
  <g pointer-events="none">
    <path  d="M2.97 12.92A2 2 0 0 0 2 14.63v3.24a2 2 0 0 0 .97 1.71l3 1.8a2 2 0 0 0 2.06 0L12 19v-5.5l-5-3-4.03 2.42Z">
    <animateTransform attributeName="transform" type="translate" values="0 0; 0 -1; 0 0" dur="0.4s" begin="boxes-g.mouseover" calcMode="spline" keySplines="0.4 0 0.2 1; 0.4 0 0.2 1" />
  </path>
  </g>
  <g pointer-events="none">
    <path  d="m7 16.5-4.74-2.85">
    <animateTransform attributeName="transform" type="translate" values="0 0; 0 -1; 0 0" dur="0.4s" begin="boxes-g.mouseover" calcMode="spline" keySplines="0.4 0 0.2 1; 0.4 0 0.2 1" />
  </path>
  </g>
  <g pointer-events="none">
    <path  d="m7 16.5 5-3">
    <animateTransform attributeName="transform" type="translate" values="0 0; 0 -1; 0 0" dur="0.4s" begin="boxes-g.mouseover" calcMode="spline" keySplines="0.4 0 0.2 1; 0.4 0 0.2 1" />
  </path>
  </g>
  <g pointer-events="none">
    <path  d="M7 16.5v5.17">
    <animateTransform attributeName="transform" type="translate" values="0 0; 0 -1; 0 0" dur="0.4s" begin="boxes-g.mouseover" calcMode="spline" keySplines="0.4 0 0.2 1; 0.4 0 0.2 1" />
  </path>
  </g>
  <g pointer-events="none">
    <path  d="M12 13.5V19l3.97 2.38a2 2 0 0 0 2.06 0l3-1.8a2 2 0 0 0 .97-1.71v-3.24a2 2 0 0 0-.97-1.71L17 10.5l-5 3Z">
    <animateTransform attributeName="transform" type="translate" values="0 0; 0 -1; 0 0" dur="0.4s" begin="boxes-g.mouseover" calcMode="spline" keySplines="0.4 0 0.2 1; 0.4 0 0.2 1" />
  </path>
  </g>
  <g pointer-events="none">
    <path  d="m17 16.5-5-3">
    <animateTransform attributeName="transform" type="translate" values="0 0; 0 -1; 0 0" dur="0.4s" begin="boxes-g.mouseover" calcMode="spline" keySplines="0.4 0 0.2 1; 0.4 0 0.2 1" />
  </path>
  </g>
  <g pointer-events="none">
    <path  d="m17 16.5 4.74-2.85">
    <animateTransform attributeName="transform" type="translate" values="0 0; 0 -1; 0 0" dur="0.4s" begin="boxes-g.mouseover" calcMode="spline" keySplines="0.4 0 0.2 1; 0.4 0 0.2 1" />
  </path>
  </g>
  <g pointer-events="none">
    <path  d="M17 16.5v5.17">
    <animateTransform attributeName="transform" type="translate" values="0 0; 0 -1; 0 0" dur="0.4s" begin="boxes-g.mouseover" calcMode="spline" keySplines="0.4 0 0.2 1; 0.4 0 0.2 1" />
  </path>
  </g>
  <g pointer-events="none">
    <path  d="M7.97 4.42A2 2 0 0 0 7 6.13v4.37l5 3 5-3V6.13a2 2 0 0 0-.97-1.71l-3-1.8a2 2 0 0 0-2.06 0l-3 1.8Z">
    <animateTransform attributeName="transform" type="translate" values="0 0; 0 -1; 0 0" dur="0.4s" begin="boxes-g.mouseover" calcMode="spline" keySplines="0.4 0 0.2 1; 0.4 0 0.2 1" />
  </path>
  </g>
  <g pointer-events="none">
    <path  d="M12 8 7.26 5.15">
    <animateTransform attributeName="transform" type="translate" values="0 0; 0 -1; 0 0" dur="0.4s" begin="boxes-g.mouseover" calcMode="spline" keySplines="0.4 0 0.2 1; 0.4 0 0.2 1" />
  </path>
  </g>
  <g pointer-events="none">
    <path  d="m12 8 4.74-2.85">
    <animateTransform attributeName="transform" type="translate" values="0 0; 0 -1; 0 0" dur="0.4s" begin="boxes-g.mouseover" calcMode="spline" keySplines="0.4 0 0.2 1; 0.4 0 0.2 1" />
  </path>
  </g>
  <g pointer-events="none">
    <path  d="M12 13.5V8">
    <animateTransform attributeName="transform" type="translate" values="0 0; 0 -1; 0 0" dur="0.4s" begin="boxes-g.mouseover" calcMode="spline" keySplines="0.4 0 0.2 1; 0.4 0 0.2 1" />
  </path>
  </g>
</g>
</svg>