<svg viewBox="0 0 24 24" fill="none" stroke="currentColor" stroke-width="2" stroke-linecap="round" stroke-linejoin="round" aria-label="boxes">
<g id="boxes-g">
  <rect width="24" height="24" fill="transparent" stroke="none" pointer-events="all" />
  <path pointer-events="none" d="M2.97 12.92A2 2 0 0 0 2 14.63v3.24a2 2 0 0 0 .97 1.71l3 1.8a2 2 0 0 0 2.06 0L12 19v-5.5l-5-3-4.03 2.42Z" />
  <path pointer-events="none" d="m7 16.5-4.74-2.85" />
  <path pointer-events="none" d="m7 16.5 5-3" />
  <path pointer-events="none" d="M7 16.5v5.17" />
  <path pointer-events="none" d="M12 13.5V19l3.97 2.38a2 2 0 0 0 2.06 0l3-1.8a2 2 0 0 0 .97-1.71v-3.24a2 2 0 0 0-.97-1.71L17 10.5l-5 3Z" />
  <path pointer-events="none" d="m17 16.5-5-3" />
  <path pointer-events="none" d="m17 16.5 4.74-2.85" />
  <path pointer-events="none" d="M17 16.5v5.17" />
  <path pointer-events="none" d="M7.97 4.42A2 2 0 0 0 7 6.13v4.37l5 3 5-3V6.13a2 2 0 0 0-.97-1.71l-3-1.8a2 2 0 0 0-2.06 0l-3 1.8Z" />
  <path pointer-events="none" d="M12 8 7.26 5.15" />
  <path pointer-events="none" d="m12 8 4.74-2.85" />
  <path pointer-events="none" d="M12 13.5V8" />
  <animateTransform attributeName="transform" type="scale" values="1 1; 1.1 1.1; 1 1" transform-origin="12 12" dur="0.5s" begin="boxes-g.mouseover" />
</g>
</svg>