<svg viewBox="0 0 24 24" fill="none" stroke="currentColor" stroke-width="2" stroke-linecap="round" stroke-linejoin="round" aria-label="brain">
<g id="brain-g">
  <rect width="24" height="24" fill="transparent" stroke="none" pointer-events="all" />
  <path pointer-events="none" d="M12 18V5" />
  <path pointer-events="none" d="M15 13a4.17 4.17 0 0 1-3-4 4.17 4.17 0 0 1-3 4" />
  <path pointer-events="none" d="M17.598 6.5A3 3 0 1 0 12 5a3 3 0 1 0-5.598 1.5" />
  <path pointer-events="none" d="M17.997 5.125a4 4 0 0 1 2.526 5.77" />
  <path pointer-events="none" d="M18 18a4 4 0 0 0 2-7.464" />
  <path pointer-events="none" d="M19.967 17.483A4 4 0 1 1 12 18a4 4 0 1 1-7.967-.517" />
  <path pointer-events="none" d="M6 18a4 4 0 0 1-2-7.464" />
  <path pointer-events="none" d="M6.003 5.125a4 4 0 0 0-2.526 5.77" />
  <animateTransform attributeName="transform" type="scale" values="1 1; 1.1 1.1; 1 1" transform-origin="12 12" dur="0.5s" begin="brain-g.mouseover" />
</g>
</svg>