<svg viewBox="0 0 24 24" fill="none" stroke="currentColor" stroke-width="2" stroke-linecap="round" stroke-linejoin="round" aria-label="brain-circuit">
<g id="brain-circuit-g">
  <rect width="24" height="24" fill="transparent" stroke="none" pointer-events="all" />
  <path pointer-events="none" d="M12 5a3 3 0 1 0-5.997.125 4 4 0 0 0-2.526 5.77 4 4 0 0 0 .556 6.588A4 4 0 1 0 12 18Z" />
  <path pointer-events="none" d="M9 13a4.5 4.5 0 0 0 3-4" />
  <path pointer-events="none" d="M6.003 5.125A3 3 0 0 0 6.401 6.5" />
  <path pointer-events="none" d="M3.477 10.896a4 4 0 0 1 .585-.396" />
  <path pointer-events="none" d="M6 18a4 4 0 0 1-1.967-.516" />
  <path pointer-events="none" d="M12 13h4" />
  <path pointer-events="none" d="M12 18h6a2 2 0 0 1 2 2v1" />
  <path pointer-events="none" d="M12 8h8" />
  <path pointer-events="none" d="M16 8V5a2 2 0 0 1 2-2" />
  <circle pointer-events="none" cx="16" cy="13" r=".5" />
  <circle pointer-events="none" cx="18" cy="3" r=".5" />
  <circle pointer-events="none" cx="20" cy="21" r=".5" />
  <circle pointer-events="none" cx="20" cy="8" r=".5" />
  <animateTransform attributeName="transform" type="scale" values="1 1; 1.1 1.1; 1 1" transform-origin="12 12" dur="0.5s" begin="brain-circuit-g.mouseover" />
</g>
</svg>