<svg viewBox="0 0 24 24" fill="none" stroke="currentColor" stroke-width="2" stroke-linecap="round" stroke-linejoin="round" aria-label="brick-wall-shield">
<g id="brick-wall-shield-g">
  <rect width="24" height="24" fill="transparent" stroke="none" pointer-events="all" />
  <path pointer-events="none" d="M12 9v1.258" />
  <path pointer-events="none" d="M16 3v5.46" />
  <path pointer-events="none" d="M21 9.118V5a2 2 0 0 0-2-2H5a2 2 0 0 0-2 2v14a2 2 0 0 0 2 2h5.75" />
  <path pointer-events="none" d="M22 17.5c0 2.499-1.75 3.749-3.83 4.474a.5.5 0 0 1-.335-.005c-2.085-.72-3.835-1.97-3.835-4.47V14a.5.5 0 0 1 .5-.499c1 0 2.25-.6 3.12-1.36a.6.6 0 0 1 .76-.001c.875.765 2.12 1.36 3.12 1.36a.5.5 0 0 1 .5.5z" />
  <path pointer-events="none" d="M3 15h7" />
  <path pointer-events="none" d="M3 9h12.142" />
  <path pointer-events="none" d="M8 15v6" />
  <path pointer-events="none" d="M8 3v6" />
  <animateTransform attributeName="transform" type="scale" values="1 1; 1.1 1.1; 1 1" transform-origin="12 12" dur="0.5s" begin="brick-wall-shield-g.mouseover" />
</g>
</svg>