<svg viewBox="0 0 24 24" fill="none" stroke="currentColor" stroke-width="2" stroke-linecap="round" stroke-linejoin="round" aria-label="brick-wall-fire">
<g id="brick-wall-fire-g">
  <rect width="24" height="24" fill="transparent" stroke="none" pointer-events="all" />
  <path pointer-events="none" d="M16 3v2.107" />
  <path pointer-events="none" d="M17 9c1 3 2.5 3.5 3.5 4.5A5 5 0 0 1 22 17a5 5 0 0 1-10 0c0-.3 0-.6.1-.9a2 2 0 1 0 3.3-2C13 11.5 16 9 17 9" />
  <path pointer-events="none" d="M21 8.274V5a2 2 0 0 0-2-2H5a2 2 0 0 0-2 2v14a2 2 0 0 0 2 2h3.938" />
  <path pointer-events="none" d="M3 15h5.253" />
  <path pointer-events="none" d="M3 9h8.228" />
  <path pointer-events="none" d="M8 15v6" />
  <path pointer-events="none" d="M8 3v6" />
  <animateTransform attributeName="transform" type="scale" values="1 1; 1.1 1.1; 1 1" transform-origin="12 12" dur="0.5s" begin="brick-wall-fire-g.mouseover" />
</g>
</svg>