<svg viewBox="0 0 24 24" fill="none" stroke="currentColor" stroke-width="2" stroke-linecap="round" stroke-linejoin="round" aria-label="bring-to-front" id="bringToFrontSvg">
  <g transform="translate(1.5 1.5) scale(0.875)">

<g id="bring-to-front-g">
  <rect  width="24" height="24" fill="transparent" stroke="none" pointer-events="all" />
  <g pointer-events="none">
    <rect  x="8" y="8" width="8" height="8" rx="2">
    <animate attributeName="opacity" values="1; 0.7; 1" dur="0.4s" begin="bringToFrontSvg.mouseover" />
  </rect>
  </g>
  <g pointer-events="none">
    <path  d="M4 10a2 2 0 0 1-2-2V4a2 2 0 0 1 2-2h4a2 2 0 0 1 2 2">
    <animateTransform attributeName="transform" type="translate" values="0 0; 0 -1; 0 0" dur="0.4s" begin="bringToFrontSvg.mouseover" calcMode="spline" keySplines="0.4 0 0.2 1; 0.4 0 0.2 1" />
  </path>
  </g>
  <g pointer-events="none">
    <path  d="M14 20a2 2 0 0 0 2 2h4a2 2 0 0 0 2-2v-4a2 2 0 0 0-2-2">
    <animateTransform attributeName="transform" type="translate" values="0 0; 0 -1; 0 0" dur="0.4s" begin="bringToFrontSvg.mouseover" calcMode="spline" keySplines="0.4 0 0.2 1; 0.4 0 0.2 1" />
  </path>
  </g>
</g>

  </g>
  <rect width="24" height="24" fill="transparent" stroke="none" pointer-events="all" />
</svg>