<svg viewBox="0 0 24 24" fill="none" stroke="currentColor" stroke-width="2" stroke-linecap="round" stroke-linejoin="round" aria-label="bug-off">
<g id="bug-off-g">
  <rect width="24" height="24" fill="transparent" stroke="none" pointer-events="all" />
  <path pointer-events="none" d="M12 20v-8" />
  <path pointer-events="none" d="M12.656 7H14a4 4 0 0 1 4 4v1.344" />
  <path pointer-events="none" d="M14.12 3.88 16 2" />
  <path pointer-events="none" d="M17.123 17.123A6 6 0 0 1 6 14v-3a4 4 0 0 1 1.72-3.287" />
  <path pointer-events="none" d="m2 2 20 20" />
  <path pointer-events="none" d="M21 5a4 4 0 0 1-3.55 3.97" />
  <path pointer-events="none" d="M22 13h-3.344" />
  <path pointer-events="none" d="M3 21a4 4 0 0 1 3.81-4" />
  <path pointer-events="none" d="M3 5a4 4 0 0 0 3.55 3.97" />
  <path pointer-events="none" d="M6 13H2" />
  <path pointer-events="none" d="m8 2 1.88 1.88" />
  <path pointer-events="none" d="M9.712 4.06A3 3 0 0 1 15 6v1.13" />
  <animateTransform attributeName="transform" type="scale" values="1 1; 1.1 1.1; 1 1" transform-origin="12 12" dur="0.5s" begin="bug-off-g.mouseover" />
</g>
</svg>