<svg viewBox="0 0 24 24" fill="none" stroke="currentColor" stroke-width="2" stroke-linecap="round" stroke-linejoin="round" aria-label="building-2">
<g id="building-2-g">
  <rect width="24" height="24" fill="transparent" stroke="none" pointer-events="all" />
  <g pointer-events="none">
    <path  d="M10 12h4">
    <animateTransform attributeName="transform" type="translate" values="0 0; 0 -1; 0 0" dur="0.4s" begin="building-2-g.mouseover" calcMode="spline" keySplines="0.4 0 0.2 1; 0.4 0 0.2 1" />
  </path>
  </g>
  <g pointer-events="none">
    <path  d="M10 8h4">
    <animateTransform attributeName="transform" type="translate" values="0 0; 0 -1; 0 0" dur="0.4s" begin="building-2-g.mouseover" calcMode="spline" keySplines="0.4 0 0.2 1; 0.4 0 0.2 1" />
  </path>
  </g>
  <g pointer-events="none">
    <path  d="M14 21v-3a2 2 0 0 0-4 0v3">
    <animateTransform attributeName="transform" type="translate" values="0 0; 0 -1; 0 0" dur="0.4s" begin="building-2-g.mouseover" calcMode="spline" keySplines="0.4 0 0.2 1; 0.4 0 0.2 1" />
  </path>
  </g>
  <g pointer-events="none">
    <path  d="M6 10H4a2 2 0 0 0-2 2v7a2 2 0 0 0 2 2h16a2 2 0 0 0 2-2V9a2 2 0 0 0-2-2h-2">
    <animateTransform attributeName="transform" type="translate" values="0 0; 0 -1; 0 0" dur="0.4s" begin="building-2-g.mouseover" calcMode="spline" keySplines="0.4 0 0.2 1; 0.4 0 0.2 1" />
  </path>
  </g>
  <g pointer-events="none">
    <path  d="M6 21V5a2 2 0 0 1 2-2h8a2 2 0 0 1 2 2v16">
    <animateTransform attributeName="transform" type="translate" values="0 0; 0 -1; 0 0" dur="0.4s" begin="building-2-g.mouseover" calcMode="spline" keySplines="0.4 0 0.2 1; 0.4 0 0.2 1" />
  </path>
  </g>
</g>
</svg>