<svg viewBox="0 0 24 24" fill="none" stroke="currentColor" stroke-width="2" stroke-linecap="round" stroke-linejoin="round" aria-label="cake">
<g id="cake-g">
  <rect width="24" height="24" fill="transparent" stroke="none" pointer-events="all" />
  <path pointer-events="none" d="M20 21v-8a2 2 0 0 0-2-2H6a2 2 0 0 0-2 2v8" />
  <path pointer-events="none" d="M4 16s.5-1 2-1 2.5 2 4 2 2.5-2 4-2 2.5 2 4 2 2-1 2-1" />
  <path pointer-events="none" d="M2 21h20" />
  <path pointer-events="none" d="M7 8v3" />
  <path pointer-events="none" d="M12 8v3" />
  <path pointer-events="none" d="M17 8v3" />
  <path pointer-events="none" d="M7 4h.01" />
  <path pointer-events="none" d="M12 4h.01" />
  <path pointer-events="none" d="M17 4h.01" />
  <animateTransform attributeName="transform" type="scale" values="1 1; 1.1 1.1; 1 1" transform-origin="12 12" dur="0.5s" begin="cake-g.mouseover" />
</g>
</svg>