<svg viewBox="0 0 24 24" fill="none" stroke="currentColor" stroke-width="2" stroke-linecap="round" stroke-linejoin="round" aria-label="calendar-sync">
<g id="calendar-sync-g">
  <rect width="24" height="24" fill="transparent" stroke="none" pointer-events="all" />
  <path pointer-events="none" d="M11 10v4h4" />
  <path pointer-events="none" d="m11 14 1.535-1.605a5 5 0 0 1 8 1.5" />
  <path pointer-events="none" d="M16 2v4" />
  <path pointer-events="none" d="m21 18-1.535 1.605a5 5 0 0 1-8-1.5" />
  <path pointer-events="none" d="M21 22v-4h-4" />
  <path pointer-events="none" d="M21 8.5V6a2 2 0 0 0-2-2H5a2 2 0 0 0-2 2v14a2 2 0 0 0 2 2h4.3" />
  <path pointer-events="none" d="M3 10h4" />
  <path pointer-events="none" d="M8 2v4" />
  <animateTransform attributeName="transform" type="rotate" values="0 12 12; 90 12 12; 0 12 12" dur="0.5s" begin="calendar-sync-g.mouseover" />
</g>
</svg>