<svg viewBox="0 0 24 24" fill="none" stroke="currentColor" stroke-width="2" stroke-linecap="round" stroke-linejoin="round" aria-label="calendar-heart">
<g id="calendar-heart-g">
  <rect width="24" height="24" fill="transparent" stroke="none" pointer-events="all" />
  <path pointer-events="none" d="M12.127 22H5a2 2 0 0 1-2-2V6a2 2 0 0 1 2-2h14a2 2 0 0 1 2 2v5.125" />
  <path pointer-events="none" d="M14.62 18.8A2.25 2.25 0 1 1 18 15.836a2.25 2.25 0 1 1 3.38 2.966l-2.626 2.856a.998.998 0 0 1-1.507 0z" />
  <path pointer-events="none" d="M16 2v4" />
  <path pointer-events="none" d="M3 10h18" />
  <path pointer-events="none" d="M8 2v4" />
  <animateTransform attributeName="transform" type="scale" values="1 1; 1.2 1.2; 1 1" transform-origin="12 12" dur="0.5s" begin="calendar-heart-g.mouseover" />
  <animate attributeName="stroke" values="currentColor; #f59e0b; currentColor" dur="0.5s" begin="calendar-heart-g.mouseover" />
</g>
</svg>