<svg viewBox="0 0 24 24" fill="none" stroke="currentColor" stroke-width="2" stroke-linecap="round" stroke-linejoin="round" aria-label="cannabis">
<g id="cannabis-g">
  <rect width="24" height="24" fill="transparent" stroke="none" pointer-events="all" />
  <path pointer-events="none" d="M12 22v-4" />
  <path pointer-events="none" d="M7 12c-1.5 0-4.5 1.5-5 3 3.5 1.5 6 1 6 1-1.5 1.5-2 3.5-2 5 2.5 0 4.5-1.5 6-3 1.5 1.5 3.5 3 6 3 0-1.5-.5-3.5-2-5 0 0 2.5.5 6-1-.5-1.5-3.5-3-5-3 1.5-1 4-4 4-6-2.5 0-5.5 1.5-7 3 0-2.5-.5-5-2-7-1.5 2-2 4.5-2 7-1.5-1.5-4.5-3-7-3 0 2 2.5 5 4 6" />
  <animateTransform attributeName="transform" type="scale" values="1 1; 1.1 1.1; 1 1" transform-origin="12 12" dur="0.5s" begin="cannabis-g.mouseover" />
</g>
</svg>