<svg viewBox="0 0 24 24" fill="none" stroke="currentColor" stroke-width="2" stroke-linecap="round" stroke-linejoin="round" aria-label="headphones">
<g id="headphones-g">
  <rect width="24" height="24" fill="transparent" stroke="none" pointer-events="all" />
  
  <path pointer-events="none" d="M3 18v-6a9 9 0 0 1 18 0v6" />
  <path pointer-events="none" d="M21 19a2 2 0 0 1-2 2h-1a2 2 0 0 1-2-2v-3a2 2 0 0 1 2-2h3zM3 19a2 2 0 0 0 2 2h1a2 2 0 0 0 2-2v-3a2 2 0 0 0-2-2H3z">
    <animateTransform attributeName="transform" type="translate" values="0 0; 0 -2; 0 2; 0 0" dur="0.6s" begin="headphones-g.mouseover" />
  </path>

</g>
</svg>