<svg viewBox="0 0 24 24" fill="none" stroke="currentColor" stroke-width="2" stroke-linecap="round" stroke-linejoin="round" aria-label="headphones">
<g id="headphones-g">
  <rect width="24" height="24" fill="transparent" stroke="none" pointer-events="all" />
  <g pointer-events="none">
    <g id="headphones-g">
    <animateTransform attributeName="transform" type="translate" values="0 0; 0 -2; 0 0" dur="0.4s" begin="headphones-g.mouseover+0.05s" calcMode="spline" keySplines="0.4 0 0.2 1; 0.4 0 0.2 1" />
  </g>
  </g>
  <g pointer-events="none">
    <path  d="M3 18v-6a9 9 0 0 1 18 0v6" pathLength="1" stroke-dasharray="1" stroke-dashoffset="0">
    <animate attributeName="stroke-dashoffset" values="1; 0; 0" keyTimes="0; 0.6; 1" dur="0.6s" begin="headphones-g.mouseover+0.15000000000000002s" calcMode="spline" keySplines="0.4 0 0.2 1; 0.4 0 0.2 1" fill="freeze" />
  </path>
  </g>
  <g pointer-events="none">
    <path  d="M21 19a2 2 0 0 1-2 2h-1a2 2 0 0 1-2-2v-3a2 2 0 0 1 2-2h3zM3 19a2 2 0 0 0 2 2h1a2 2 0 0 0 2-2v-3a2 2 0 0 0-2-2H3z">
    <animateTransform attributeName="transform" type="translate" values="0 0; 0 -2; 0 0" dur="0.4s" begin="headphones-g.mouseover+0.2s" calcMode="spline" keySplines="0.4 0 0.2 1; 0.4 0 0.2 1" />
  </path>
  </g>
  <g pointer-events="none">
    <animateTransform attributeName="transform" type="translate" values="0 0; 0 -2; 0 2; 0 0" dur="0.6s" begin="headphones-g.mouseover">
    <animateTransform attributeName="transform" type="translate" values="0 0; 0 -2; 0 0" dur="0.4s" begin="headphones-g.mouseover+0.25s" calcMode="spline" keySplines="0.4 0 0.2 1; 0.4 0 0.2 1" />
  </animate>
  </g>
</g>
</svg>