<svg viewBox="0 0 24 24" fill="none" stroke="currentColor" stroke-width="2" stroke-linecap="round" stroke-linejoin="round" aria-label="package">
<g id="package-g">
  <rect width="24" height="24" fill="transparent" stroke="none" pointer-events="all" />
  <g pointer-events="none">
    <line  x1="16.5" y1="9.4" x2="7.5" y2="4.21" pathLength="1" stroke-dasharray="1" stroke-dashoffset="0">
    <animate attributeName="stroke-dashoffset" values="1; 0; 0" keyTimes="0; 0.6; 1" dur="0.6s" begin="package-g.mouseover" calcMode="spline" keySplines="0.4 0 0.2 1; 0.4 0 0.2 1" fill="freeze" />
  </line>
  </g>
  <g pointer-events="none">
    <path  d="M21 16V8a2 2 0 0 0-1-1.73l-7-4a2 2 0 0 0-2 0l-7 4A2 2 0 0 0 3 8v8a2 2 0 0 0 1 1.73l7 4a2 2 0 0 0 2 0l7-4A2 2 0 0 0 21 16z">
    <animateTransform attributeName="transform" type="translate" values="0 0; 0 -1; 0 0" dur="0.4s" begin="package-g.mouseover" calcMode="spline" keySplines="0.4 0 0.2 1; 0.4 0 0.2 1" />
  </path>
  </g>
  <g pointer-events="none">
    <polyline  points="3.27 6.96 12 12.01 20.73 6.96" pathLength="1" stroke-dasharray="1" stroke-dashoffset="0">
    <animate attributeName="stroke-dashoffset" values="1; 0; 0" keyTimes="0; 0.6; 1" dur="0.6s" begin="package-g.mouseover" calcMode="spline" keySplines="0.4 0 0.2 1; 0.4 0 0.2 1" fill="freeze" />
  </polyline>
  </g>
  <g pointer-events="none">
    <line  x1="12" y1="22.08" x2="12" y2="12" pathLength="1" stroke-dasharray="1" stroke-dashoffset="0">
    <animate attributeName="stroke-dashoffset" values="1; 0; 0" keyTimes="0; 0.6; 1" dur="0.6s" begin="package-g.mouseover" calcMode="spline" keySplines="0.4 0 0.2 1; 0.4 0 0.2 1" fill="freeze" />
  </line>
  </g>
</g>
</svg>