<svg viewBox="0 0 24 24" fill="none" stroke="currentColor" stroke-width="2" stroke-linecap="round" stroke-linejoin="round" aria-label="phone">

  <g>
    <rect width="24" height="24" fill="transparent" stroke="none" />
    <path pointer-events="none" d="M22 16.92v3a2 2 0 0 1-2.18 2 19.79 19.79 0 0 1-8.63-3.07 19.5 19.5 0 0 1-6-6 19.79 19.79 0 0 1-3.07-8.67A2 2 0 0 1 4.11 2h3a2 2 0 0 1 2 1.72 12.84 12.84 0 0 0 .7 2.81 2 2 0 0 1-.45 2.11L8.09 9.91a16 16 0 0 0 6 6l1.27-1.27a2 2 0 0 1 2.11-.45 12.84 12.84 0 0 0 2.81.7A2 2 0 0 1 22 16.92z" pathLength="100" stroke-dasharray="100">
      <animate attributeName="stroke-dashoffset" from="100" to="0" dur=".8s" begin="mouseover" fill="remove" />
      <animateTransform attributeName="transform" type="rotate" values="0 12 12; -10 12 12; 10 12 12; -10 12 12; 10 12 12; 0 12 12" keyTimes="0; 0.2; 0.4; 0.6; 0.8; 1" dur=".6s" begin="mouseover" />
    </path>
  </g>

</svg>