<svg viewBox="0 0 24 24" fill="none" stroke="currentColor" stroke-width="2" stroke-linecap="round" stroke-linejoin="round" aria-label="settings">
  <g id="settings-g">
    <rect width="24" height="24" fill="transparent" stroke="none" />
    <path pointer-events="none" d="M19.4 15a1.7 1.7 0 0 0 .3 1.8l.1.1a2 2 0 1 1-2.8 2.8l-.1-.1a1.7 1.7 0 0 0-1.8-.3 1.7 1.7 0 0 0-1 1.5V21a2 2 0 1 1-4 0v-.2a1.7 1.7 0 0 0-1-1.5 1.7 1.7 0 0 0-1.8.3l-.1.1a2 2 0 1 1-2.8-2.8l.1-.1a1.7 1.7 0 0 0 .3-1.8 1.7 1.7 0 0 0-1.5-1H3a2 2 0 1 1 0-4h.2a1.7 1.7 0 0 0 1.5-1 1.7 1.7 0 0 0-.3-1.8l-.1-.1a2 2 0 1 1 2.8-2.8l.1.1a1.7 1.7 0 0 0 1.8.3h.1a1.7 1.7 0 0 0 1-1.5V3a2 2 0 1 1 4 0v.2a1.7 1.7 0 0 0 1 1.5h.1a1.7 1.7 0 0 0 1.8-.3l.1-.1a2 2 0 1 1 2.8 2.8l-.1.1a1.7 1.7 0 0 0-.3 1.8v.1a1.7 1.7 0 0 0 1.5 1H21a2 2 0 1 1 0 4h-.2a1.7 1.7 0 0 0-1.5 1Z">
      <animateTransform attributeName="transform" type="rotate" values="0 12 12; 45 12 12" dur="0.6s" begin="settings-g.mouseover" calcMode="spline" keySplines="0.4 0 0.2 1" fill="freeze" />
    </path>
    <circle pointer-events="none" cx="12" cy="12" r="3" />
  </g>
</svg>