<svg viewBox="0 0 24 24" fill="none" stroke="currentColor" stroke-width="2" stroke-linecap="round" stroke-linejoin="round" aria-label="ambulance">
<g id="ambulance-g">
  <rect width="24" height="24" fill="transparent" stroke="none" pointer-events="all" />
  <path pointer-events="none" d="M10 10H6" />
  <path pointer-events="none" d="M14 18V6a2 2 0 0 0-2-2H4a2 2 0 0 0-2 2v11a1 1 0 0 0 1 1h2" />
  <path pointer-events="none"
    d="M19 18h2a1 1 0 0 0 1-1v-3.28a1 1 0 0 0-.684-.948l-1.923-.641a1 1 0 0 1-.578-.502l-1.539-3.076A1 1 0 0 0 16.382 8H14" />
  <path pointer-events="none" d="M8 8v4" />
  <path pointer-events="none" d="M9 18h6" />
  <circle pointer-events="none" cx="17" cy="18" r="2" />
  <circle pointer-events="none" cx="7" cy="18" r="2" />
  <animateTransform attributeName="transform" type="scale" values="1 1; 1.1 1.1; 1 1" transform-origin="12 12" dur="0.5s" begin="ambulance-g.mouseover" />
</g>
</svg>