<svg viewBox="0 0 24 24" fill="none" stroke="currentColor" stroke-width="2" stroke-linecap="round" stroke-linejoin="round" aria-label="amphora">
<g id="amphora-g">
  <rect width="24" height="24" fill="transparent" stroke="none" pointer-events="all" />
  <path pointer-events="none" d="M10 2v5.632c0 .424-.272.795-.653.982A6 6 0 0 0 6 14c.006 4 3 7 5 8" />
  <path pointer-events="none" d="M10 5H8a2 2 0 0 0 0 4h.68" />
  <path pointer-events="none" d="M14 2v5.632c0 .424.272.795.652.982A6 6 0 0 1 18 14c0 4-3 7-5 8" />
  <path pointer-events="none" d="M14 5h2a2 2 0 0 1 0 4h-.68" />
  <path pointer-events="none" d="M18 22H6" />
  <path pointer-events="none" d="M9 2h6" />
  <animateTransform attributeName="transform" type="scale" values="1 1; 1.1 1.1; 1 1" transform-origin="12 12" dur="0.5s" begin="amphora-g.mouseover" />
</g>
</svg>