<svg viewBox="0 0 24 24" fill="none" stroke="currentColor" stroke-width="2" stroke-linecap="round" stroke-linejoin="round" aria-label="anvil">
<g id="anvil-g">
  <rect width="24" height="24" fill="transparent" stroke="none" pointer-events="all" />
  <path pointer-events="none" d="M7 10H6a4 4 0 0 1-4-4 1 1 0 0 1 1-1h4" />
  <path pointer-events="none" d="M7 5a1 1 0 0 1 1-1h13a1 1 0 0 1 1 1 7 7 0 0 1-7 7H8a1 1 0 0 1-1-1z" />
  <path pointer-events="none" d="M9 12v5" />
  <path pointer-events="none" d="M15 12v5" />
  <path pointer-events="none" d="M5 20a3 3 0 0 1 3-3h8a3 3 0 0 1 3 3 1 1 0 0 1-1 1H6a1 1 0 0 1-1-1" />
  <animateTransform attributeName="transform" type="scale" values="1 1; 1.1 1.1; 1 1" transform-origin="12 12" dur="0.5s" begin="anvil-g.mouseover" />
</g>
</svg>