<svg viewBox="0 0 24 24" fill="none" stroke="currentColor" stroke-width="2" stroke-linecap="round" stroke-linejoin="round" aria-label="armchair">
<g id="armchair-g">
  <rect width="24" height="24" fill="transparent" stroke="none" pointer-events="all" />
  <path pointer-events="none" d="M19 9V6a2 2 0 0 0-2-2H7a2 2 0 0 0-2 2v3" />
  <path pointer-events="none" d="M3 16a2 2 0 0 0 2 2h14a2 2 0 0 0 2-2v-5a2 2 0 0 0-4 0v1.5a.5.5 0 0 1-.5.5h-9a.5.5 0 0 1-.5-.5V11a2 2 0 0 0-4 0z" />
  <path pointer-events="none" d="M5 18v2" />
  <path pointer-events="none" d="M19 18v2" />
  <animateTransform attributeName="transform" type="scale" values="1 1; 1.1 1.1; 1 1" transform-origin="12 12" dur="0.5s" begin="armchair-g.mouseover" />
</g>
</svg>