<svg viewBox="0 0 24 24" fill="none" stroke="currentColor" stroke-width="2" stroke-linecap="round" stroke-linejoin="round" aria-label="arrow-big-down-dash">
<g id="arrow-big-down-dash-g">
  <rect width="24" height="24" fill="transparent" stroke="none" pointer-events="all" />
  <path pointer-events="none" d="M15 11a1 1 0 0 0 1 1h2.939a1 1 0 0 1 .75 1.811l-6.835 6.836a1.207 1.207 0 0 1-1.707 0L4.31 13.81a1 1 0 0 1 .75-1.811H8a1 1 0 0 0 1-1V9a1 1 0 0 1 1-1h4a1 1 0 0 1 1 1z" />
  <path pointer-events="none" d="M9 4h6" />
  <animateTransform attributeName="transform" type="translate" values="0 0; 2 0; 0 0" dur="0.5s" begin="arrow-big-down-dash-g.mouseover" />
</g>
</svg>