<svg viewBox="0 0 24 24" fill="none" stroke="currentColor" stroke-width="2" stroke-linecap="round" stroke-linejoin="round" aria-label="bell-ring">
<g id="bell-ring-g">
  <rect width="24" height="24" fill="transparent" stroke="none" pointer-events="all" />
  <path pointer-events="none" d="M10.268 21a2 2 0 0 0 3.464 0" />
  <path pointer-events="none" d="M22 8c0-2.3-.8-4.3-2-6" />
  <path pointer-events="none" d="M3.262 15.326A1 1 0 0 0 4 17h16a1 1 0 0 0 .74-1.673C19.41 13.956 18 12.499 18 8A6 6 0 0 0 6 8c0 4.499-1.411 5.956-2.738 7.326" />
  <path pointer-events="none" d="M4 2C2.8 3.7 2 5.7 2 8" />
  <animateTransform attributeName="transform" type="scale" values="1 1; 1.2 1.2; 1 1" transform-origin="12 12" dur="0.5s" begin="bell-ring-g.mouseover" />
  <animate attributeName="stroke" values="currentColor; #f59e0b; currentColor" dur="0.5s" begin="bell-ring-g.mouseover" />
</g>
</svg>