<svg viewBox="0 0 24 24" fill="none" stroke="currentColor" stroke-width="2" stroke-linecap="round" stroke-linejoin="round" aria-label="binoculars">
<g id="binoculars-g">
  <rect width="24" height="24" fill="transparent" stroke="none" pointer-events="all" />
  <path pointer-events="none" d="M10 10h4" />
  <path pointer-events="none" d="M19 7V4a1 1 0 0 0-1-1h-2a1 1 0 0 0-1 1v3" />
  <path pointer-events="none" d="M20 21a2 2 0 0 0 2-2v-3.851c0-1.39-2-2.962-2-4.829V8a1 1 0 0 0-1-1h-4a1 1 0 0 0-1 1v11a2 2 0 0 0 2 2z" />
  <path pointer-events="none" d="M 22 16 L 2 16" />
  <path pointer-events="none" d="M4 21a2 2 0 0 1-2-2v-3.851c0-1.39 2-2.962 2-4.829V8a1 1 0 0 1 1-1h4a1 1 0 0 1 1 1v11a2 2 0 0 1-2 2z" />
  <path pointer-events="none" d="M9 7V4a1 1 0 0 0-1-1H6a1 1 0 0 0-1 1v3" />
  <animateTransform attributeName="transform" type="scale" values="1 1; 1.1 1.1; 1 1" transform-origin="12 12" dur="0.5s" begin="binoculars-g.mouseover" />
</g>
</svg>