<svg viewBox="0 0 24 24" fill="none" stroke="currentColor" stroke-width="2" stroke-linecap="round" stroke-linejoin="round" aria-label="book-heart">
<g id="book-heart-g">
  <rect width="24" height="24" fill="transparent" stroke="none" pointer-events="all" />
  <path pointer-events="none" d="M4 19.5v-15A2.5 2.5 0 0 1 6.5 2H19a1 1 0 0 1 1 1v18a1 1 0 0 1-1 1H6.5a1 1 0 0 1 0-5H20" />
  <path pointer-events="none" d="M8.62 9.8A2.25 2.25 0 1 1 12 6.836a2.25 2.25 0 1 1 3.38 2.966l-2.626 2.856a.998.998 0 0 1-1.507 0z" />
  <animateTransform attributeName="transform" type="scale" values="1 1; 1.2 1.2; 1 1" transform-origin="12 12" dur="0.5s" begin="book-heart-g.mouseover" />
  <animate attributeName="stroke" values="currentColor; #f59e0b; currentColor" dur="0.5s" begin="book-heart-g.mouseover" />
</g>
</svg>