<svg viewBox="0 0 24 24" fill="none" stroke="currentColor" stroke-width="2" stroke-linecap="round" stroke-linejoin="round" aria-label="book-copy">
<g id="book-copy-g">
  <rect width="24" height="24" fill="transparent" stroke="none" pointer-events="all" />
  <path pointer-events="none" d="M5 7a2 2 0 0 0-2 2v11" />
  <path pointer-events="none" d="M5.803 18H5a2 2 0 0 0 0 4h9.5a.5.5 0 0 0 .5-.5V21" />
  <path pointer-events="none" d="M9 15V4a2 2 0 0 1 2-2h9.5a.5.5 0 0 1 .5.5v14a.5.5 0 0 1-.5.5H11a2 2 0 0 1 0-4h10" />
  <animateTransform attributeName="transform" type="scale" values="1 1; 1.1 1.1; 1 1" transform-origin="12 12" dur="0.5s" begin="book-copy-g.mouseover" />
</g>
</svg>