<svg viewBox="0 0 24 24" fill="none" stroke="currentColor" stroke-width="2" stroke-linecap="round" stroke-linejoin="round" aria-label="book-open-check">
<g id="book-open-check-g">
  <rect width="24" height="24" fill="transparent" stroke="none" pointer-events="all" />
  <path pointer-events="none" d="M12 21V7" />
  <path pointer-events="none" d="m16 12 2 2 4-4" />
  <path pointer-events="none" d="M22 6V4a1 1 0 0 0-1-1h-5a4 4 0 0 0-4 4 4 4 0 0 0-4-4H3a1 1 0 0 0-1 1v13a1 1 0 0 0 1 1h6a3 3 0 0 1 3 3 3 3 0 0 1 3-3h6a1 1 0 0 0 1-1v-1.3" />
  <animateTransform attributeName="transform" type="scale" values="1 1; 1.2 1.2; 1 1" transform-origin="12 12" dur="0.5s" begin="book-open-check-g.mouseover" />
  <animate attributeName="stroke" values="currentColor; #10b981; currentColor" dur="0.5s" begin="book-open-check-g.mouseover" />
</g>
</svg>