<svg viewBox="0 0 24 24" fill="none" stroke="currentColor" stroke-width="2" stroke-linecap="round" stroke-linejoin="round" aria-label="bottle-wine">
<g id="bottle-wine-g">
  <rect width="24" height="24" fill="transparent" stroke="none" pointer-events="all" />
  <path pointer-events="none" d="M10 3a1 1 0 0 1 1-1h2a1 1 0 0 1 1 1v2a6 6 0 0 0 1.2 3.6l.6.8A6 6 0 0 1 17 13v8a1 1 0 0 1-1 1H8a1 1 0 0 1-1-1v-8a6 6 0 0 1 1.2-3.6l.6-.8A6 6 0 0 0 10 5z" />
  <path pointer-events="none" d="M17 13h-4a1 1 0 0 0-1 1v3a1 1 0 0 0 1 1h4" />
  <animateTransform attributeName="transform" type="scale" values="1 1; 1.1 1.1; 1 1" transform-origin="12 12" dur="0.5s" begin="bottle-wine-g.mouseover" />
</g>
</svg>