<svg viewBox="0 0 24 24" fill="none" stroke="currentColor" stroke-width="2" stroke-linecap="round" stroke-linejoin="round" aria-label="calendar-cog">
<g id="calendar-cog-g">
  <rect width="24" height="24" fill="transparent" stroke="none" pointer-events="all" />
  <path pointer-events="none" d="m15.228 16.852-.923-.383" />
  <path pointer-events="none" d="m15.228 19.148-.923.383" />
  <path pointer-events="none" d="M16 2v4" />
  <path pointer-events="none" d="m16.47 14.305.382.923" />
  <path pointer-events="none" d="m16.852 20.772-.383.924" />
  <path pointer-events="none" d="m19.148 15.228.383-.923" />
  <path pointer-events="none" d="m19.53 21.696-.382-.924" />
  <path pointer-events="none" d="m20.772 16.852.924-.383" />
  <path pointer-events="none" d="m20.772 19.148.924.383" />
  <path pointer-events="none" d="M21 10.592V6a2 2 0 0 0-2-2H5a2 2 0 0 0-2 2v14a2 2 0 0 0 2 2h6" />
  <path pointer-events="none" d="M3 10h18" />
  <path pointer-events="none" d="M8 2v4" />
  <circle pointer-events="none" cx="18" cy="18" r="3" />
  <animateTransform attributeName="transform" type="scale" values="1 1; 1.1 1.1; 1 1" transform-origin="12 12" dur="0.5s" begin="calendar-cog-g.mouseover" />
</g>
</svg>