<svg viewBox="0 0 24 24" fill="none" stroke="currentColor" stroke-width="2" stroke-linecap="round" stroke-linejoin="round" aria-label="mic-off">
<g id="mic-off-g">
  <rect width="24" height="24" fill="transparent" stroke="none" pointer-events="all" />
  
  <line pointer-events="none" x1="2" y1="2" x2="22" y2="22" />
  <path pointer-events="none" d="M18.89 13.23A7.12 7.12 0 0 0 19 10v-2" />
  <path pointer-events="none" d="M5 10v2a7 7 0 0 0 12 5" />
  <path pointer-events="none" d="M15 9.34V4a3 3 0 0 0-5.94-.6" />
  <path pointer-events="none" d="M17 16.95A7 7 0 0 1 5 12v-2m14 0v2a7 7 0 0 1-.11 1.23" />
  <line pointer-events="none" x1="12" y1="19" x2="12" y2="23" />
  <line pointer-events="none" x1="8" y1="23" x2="16" y2="23" />
  <animateTransform attributeName="transform" type="translate" values="0 0; 1 1; 0 0" dur="0.3s" begin="mic-off-g.mouseover" />

</g>
</svg>